<svg width="1075" height="900" viewBox="0 0 1075 900" fill="none" xmlns="http://www.w3.org/2000/svg">
<path d="M570.5 363H911C1022.6 363 1066 718.167 1075 900V0H0C12.8333 17.6667 101.4 50 355 50C608.6 50 604.333 257.667 570.5 363Z" fill="url(#paint0_linear)"/>
<g clip-path="url(#clip0)">
<path d="M880.405 236.995C879.836 236.56 879.168 236.268 878.46 236.146C877.715 235.975 876.954 235.868 876.196 235.749L866.383 234.34C865.392 234.157 864.382 234.103 863.377 234.181C862.873 234.222 862.383 234.363 861.934 234.595C861.485 234.826 861.087 235.144 860.762 235.531C860.47 235.89 860.309 236.338 860.308 236.801C860.363 237.266 860.515 237.715 860.754 238.119C860.849 238.307 860.931 238.502 860.998 238.702C861.091 239.151 861.208 239.595 861.348 240.032C861.392 240.126 861.448 240.215 861.516 240.294C861.517 240.316 861.517 240.339 861.516 240.361C861.408 240.909 861.755 241.481 861.599 242.009C861.464 242.461 861.021 242.735 860.742 243.112C860.556 243.379 860.453 243.696 860.446 244.021C860.439 244.346 860.528 244.667 860.703 244.942C861.001 245.402 861.544 245.716 861.699 246.244C861.902 246.938 861.352 247.609 860.862 248.145C859.96 249.131 859.126 250.178 858.367 251.277C858.153 251.547 858.016 251.869 857.968 252.209C857.924 252.9 858.59 253.507 858.474 254.194C858.383 254.734 857.853 255.063 857.394 255.385C855.7 256.496 854.341 258.282 854.205 260.303C853.77 257.088 852.433 254.061 850.347 251.57C849.777 250.888 849.151 250.201 848.916 249.336C848.828 248.99 848.812 248.621 848.693 248.288C848.294 247.236 847.027 246.784 846.472 245.815C846.074 245.132 846.074 244.255 845.58 243.656C845.085 243.056 844.308 242.921 843.882 242.342C843.669 241.949 843.487 241.541 843.339 241.119C843.161 240.776 842.909 240.475 842.602 240.238C842.543 240.191 842.482 240.148 842.419 240.107C842.485 240.048 842.538 239.976 842.574 239.895C842.611 239.815 842.63 239.727 842.63 239.639C842.63 239.175 842.168 238.869 841.765 238.639C841.247 238.345 840.741 238.027 840.246 237.698C840.785 237.448 841.253 237.067 841.606 236.591C842.048 235.88 842.231 235.039 842.124 234.209C842.097 233.539 841.845 232.898 841.41 232.387C841.159 232.121 840.844 231.931 840.581 231.681C839.9 231.018 839.668 230.037 839.385 229.132C839.011 227.942 838.425 226.691 837.333 226.06C836.806 225.755 836.193 225.612 835.678 225.29C835.164 224.969 834.734 224.361 834.913 223.778C835.033 223.381 835.403 223.107 835.654 222.77C835.954 222.333 836.069 221.797 835.974 221.277C835.88 220.757 835.583 220.295 835.148 219.991C834.853 219.805 834.49 219.642 834.431 219.301C834.2 219.241 833.991 219.118 833.827 218.945C833.664 218.772 833.552 218.557 833.506 218.324C833.416 217.857 833.416 217.378 833.506 216.911C833.61 216.173 833.712 215.437 833.813 214.704C833.988 214.777 834.177 214.814 834.367 214.814C834.557 214.814 834.745 214.777 834.921 214.704C835.266 215.262 835.667 215.783 836.117 216.26C837.331 217.687 838.276 219.321 838.907 221.083C839.134 221.718 839.365 222.428 839.955 222.766C840.159 222.881 840.39 222.94 840.589 223.063C840.835 223.234 841.046 223.45 841.211 223.698C841.689 224.33 842.168 224.957 842.642 225.588L842.666 225.683C842.679 225.739 842.7 225.793 842.73 225.842C842.818 225.941 842.94 226.003 843.072 226.017C844.539 226.354 846.185 226.663 847.457 225.866C848.605 225.151 849.107 223.738 850.08 222.794C850.769 222.123 851.746 221.603 851.941 220.658C851.709 220.587 851.48 220.503 851.256 220.408C851.455 220.21 851.654 219.979 851.925 219.717C852.319 219.333 852.674 218.912 852.986 218.459C853.322 217.9 853.59 217.303 853.783 216.681C854.551 214.5 855.321 212.319 856.095 210.136C856.461 209.104 856.828 208.064 857.29 207.059C857.769 205.972 858.335 204.928 858.857 203.86C860.205 201.083 861.244 198.169 861.958 195.168C862.085 194.758 862.127 194.328 862.082 193.902C861.97 193.215 861.448 192.675 860.95 192.187C860.449 191.647 859.878 191.175 859.252 190.786C858.937 190.591 858.587 190.461 858.222 190.402C857.856 190.343 857.483 190.358 857.123 190.444C856.103 190.742 855.461 191.782 855.226 192.826C854.991 193.87 855.078 194.945 854.979 196.001C854.835 197.529 854.309 199.006 854.181 200.538C854.114 201.423 854.181 202.32 854.074 203.205C853.878 204.364 853.472 205.477 852.878 206.492C851.585 208.912 849.835 211.06 847.724 212.819C847.481 213.021 847.23 213.216 846.991 213.434C846.991 213.263 847.019 213.089 847.042 212.918C846.869 212.963 846.7 213.023 846.536 213.097C846.556 212.896 846.536 212.694 846.476 212.501C846.158 211.553 844.739 211.311 844.483 210.346C844.441 210.107 844.418 209.866 844.416 209.624C844.332 208.778 843.754 208.064 843.555 207.242C843.371 206.484 843.511 205.654 843.156 204.952C842.854 204.513 842.498 204.113 842.096 203.761C841.617 203.216 841.272 202.568 841.087 201.868C841.036 201.673 840.988 201.471 840.932 201.276C840.992 200.836 840.943 200.387 840.788 199.97C840.426 199.073 839.489 198.498 839.15 197.589C838.887 196.882 839.003 196.001 838.504 195.453C838.24 195.192 837.916 194.997 837.56 194.886C835.736 194.178 833.821 193.728 831.872 193.548C830.78 193.449 829.576 193.393 828.794 192.627C827.882 191.738 827.838 190.139 826.77 189.452C825.829 188.845 824.498 189.293 823.768 190.147C823.658 190.272 823.557 190.405 823.465 190.544C823.332 190.012 823.304 189.459 823.381 188.916C823.381 188.781 823.409 188.642 823.421 188.519C825.221 187.934 826.753 186.729 827.742 185.122C827.742 185.122 827.742 185.122 827.742 185.145L827.79 185.268C827.906 185.558 828.089 185.836 828.36 185.868C828.54 185.866 828.715 185.803 828.854 185.689C829.095 185.523 829.317 185.331 829.516 185.118C829.617 185.006 829.713 184.891 829.803 184.772C829.987 184.524 830.144 184.258 830.273 183.978C830.471 183.557 830.606 183.109 830.672 182.649C830.744 182.188 830.752 181.716 830.831 181.256C830.906 180.899 831.003 180.548 831.122 180.204C831.162 180.089 831.202 179.973 831.238 179.858C831.274 179.743 831.326 179.588 831.365 179.461C831.615 178.645 831.749 177.798 831.764 176.945C831.764 176.802 831.764 176.659 831.764 176.516C831.75 175.959 831.624 175.411 831.394 174.903C831.164 174.396 830.834 173.939 830.425 173.559C829.739 173 828.83 172.765 828.328 172.007C828.001 171.499 827.93 170.844 827.738 170.249C827.531 169.536 827.128 168.896 826.575 168.4C826.021 167.904 825.339 167.572 824.605 167.443C823.722 167.346 822.835 167.589 822.126 168.121L822.07 168.165C821.675 168.466 821.34 168.837 821.082 169.261C820.555 169.116 820.073 168.843 819.678 168.467C819.28 168.098 818.973 167.633 818.57 167.276C818.194 166.933 817.732 166.697 817.233 166.592C816.734 166.487 816.216 166.518 815.732 166.681C815.235 166.879 814.791 167.192 814.438 167.595C814.086 167.997 813.834 168.477 813.703 168.995C813.484 169.812 813.524 170.753 813.066 171.436C812.711 171.968 812.129 172.23 811.722 172.714C811.47 173.02 811.297 173.384 811.22 173.774C811.172 173.991 811.149 174.214 811.152 174.436C811.152 174.536 811.152 174.635 811.176 174.73C811.176 174.73 811.176 174.762 811.176 174.778C811.19 174.887 811.213 174.994 811.244 175.099C811.357 175.502 811.56 175.873 811.838 176.187C812.101 176.487 812.43 176.723 812.799 176.877C812.949 176.936 813.104 176.985 813.261 177.024L813.735 177.132L813.903 177.171C813.33 178.241 813.012 179.428 812.974 180.64C812.935 181.852 813.177 183.057 813.679 184.161C813.679 184.272 813.652 184.383 813.64 184.494C813.575 186.057 813.644 187.623 813.847 189.174C813.903 189.789 813.935 190.468 813.556 190.956C813.383 191.148 813.19 191.32 812.978 191.468C813.193 191.191 813.412 190.917 813.636 190.643C813.074 190.079 812.185 190.008 811.388 190.063C809.845 190.178 808.347 190.634 807.003 191.397C806.11 191.909 805.193 192.588 804.173 192.469C803.571 192.401 802.977 192.072 802.391 192.23C802.062 192.365 801.754 192.547 801.478 192.77C801.26 192.926 800.997 193.007 800.729 193C800.103 192.234 799.135 191.714 798.385 191.091C797.532 190.335 796.752 189.502 796.053 188.603C794.762 187.051 793.474 185.495 792.207 183.927C791.139 182.609 790.042 181.184 789.855 179.497C789.836 179.33 789.827 179.162 789.827 178.993C789.853 178.192 789.955 177.394 790.13 176.612C790.177 176.423 790.177 176.225 790.13 176.036C790.011 175.639 789.552 175.492 789.158 175.405C789.209 175.099 789.245 174.786 789.265 174.488C789.488 171.074 789.245 167.605 789.971 164.263C790.246 162.977 790.696 161.675 791.625 160.743C793.08 159.278 795.515 158.925 796.631 157.19C797.564 155.745 797.193 153.701 796.021 152.427C794.85 151.153 793.044 150.633 791.326 150.696C790.844 150.68 790.368 150.807 789.959 151.062C789.576 151.4 789.29 151.832 789.13 152.316L787.42 156.456C786.924 157.534 786.506 158.645 786.168 159.782C785.69 161.521 785.582 163.354 785.203 165.109C785.203 166.458 784.33 168.141 783.852 169.384C783.318 170.781 782.74 172.162 782.258 173.587C782.138 173.944 781.72 175.004 781.461 175.969C781.363 176.025 781.272 176.093 781.189 176.171C780.981 176.437 780.792 176.716 780.623 177.008C780.261 177.485 779.671 177.739 779.272 178.199C778.874 178.66 778.79 179.505 779.344 179.735C779.456 179.773 779.573 179.798 779.691 179.811C779.763 179.817 779.835 179.829 779.906 179.846C780.504 180.013 780.739 180.763 780.651 181.383C780.564 182.002 780.253 182.573 780.201 183.193C780.093 184.288 780.739 185.308 781.361 186.229C782.005 187.227 782.716 188.181 783.489 189.083C784.051 189.71 784.685 190.274 785.251 190.877C787.408 193.084 789.122 195.664 791.059 198.061C791.756 198.966 792.548 199.794 793.423 200.53C793.993 200.975 794.591 201.384 795.212 201.757L798.545 203.86C798.922 204.136 799.35 204.337 799.804 204.452C799.952 204.472 800.102 204.472 800.251 204.452C800.271 204.551 800.286 204.646 800.31 204.745C800.569 205.785 801.139 206.73 801.203 207.79C801.267 208.85 801.171 209.933 801.247 211.005C801.319 211.993 801.538 212.99 801.594 213.962C801.705 215.835 801.243 217.685 800.797 219.519C800.123 222.202 799.716 224.941 798.405 227.374C798.038 228.045 797.608 228.728 797.608 229.494C797.608 229.585 797.608 229.68 797.632 229.771L797.034 230.109C796.858 230.208 796.683 230.307 796.524 230.41C795.766 230.903 794.957 231.446 794.646 232.296C794.395 232.983 794.511 233.768 794.208 234.435C794.193 234.465 794.177 234.494 794.16 234.523C793.841 235.142 793.207 235.602 793.064 236.281C792.956 236.801 793.163 237.353 793.064 237.869C793.064 237.869 793.064 237.869 793.064 237.888C792.973 238.148 792.901 238.413 792.849 238.682C792.844 238.77 792.852 238.858 792.872 238.944C792.948 239.245 793.115 239.515 793.351 239.718C793.494 239.856 793.65 239.979 793.817 240.087C793.987 240.199 794.163 240.302 794.343 240.397L794.447 240.453C794.598 240.532 794.75 240.607 794.905 240.679L795.009 240.722C795.188 240.802 795.372 240.873 795.555 240.937L795.683 240.977C795.826 241.024 795.974 241.068 796.121 241.104L796.221 241.135L796.312 241.155L796.711 241.239L796.858 241.266C797.034 241.295 797.213 241.319 797.397 241.338H797.556C797.692 241.338 797.823 241.358 797.955 241.362H798.142C798.282 241.362 798.417 241.362 798.541 241.362H798.684C798.871 241.362 799.059 241.334 799.246 241.31H799.306C799.473 241.286 799.641 241.258 799.808 241.223L799.936 241.195C800.091 241.159 800.247 241.123 800.402 241.076L800.486 241.052C800.673 240.996 800.86 240.937 801.044 240.865C801.678 240.606 802.294 240.302 802.885 239.956C803.284 239.738 803.683 239.516 804.081 239.313C804.377 239.165 804.68 239.033 804.99 238.917C805.744 238.596 806.564 238.46 807.382 238.52C807.785 238.574 808.185 238.655 808.577 238.762C808.577 238.805 808.577 238.849 808.577 238.893C808.902 240.798 809.222 242.703 809.538 244.608C810.06 244.234 810.612 243.904 811.188 243.62C811.08 243.908 811.009 244.208 810.977 244.513C810.953 244.749 810.953 244.987 810.977 245.224C811.013 245.601 811.093 246.017 810.865 246.315C810.726 246.498 810.467 246.601 810.391 246.807C810.336 247.018 810.322 247.238 810.351 247.454C810.335 247.701 810.23 247.934 810.056 248.11C809.882 248.286 809.65 248.394 809.403 248.415C809.517 248.734 809.519 249.083 809.41 249.404C809.301 249.725 809.086 250 808.801 250.185C808.634 250.265 808.478 250.366 808.338 250.487C808.202 250.662 808.11 250.868 808.071 251.086C807.544 253.052 806.461 254.825 804.95 256.195C804.383 256.638 803.866 257.141 803.408 257.695C803.124 258.124 802.89 258.583 802.71 259.064C801.647 261.652 800.568 264.241 799.473 266.832C798.867 268.281 798.278 269.753 798.086 271.313C797.608 275.592 793.781 279.22 794.499 283.467C794.644 284.528 795.073 285.53 795.742 286.369C796.54 287.325 797.735 287.873 798.931 288.317C802.004 289.508 805.245 290.159 808.474 290.814L813.544 291.85C814.539 292.078 815.548 292.237 816.565 292.326C817.789 292.41 819.045 292.295 820.236 292.604C820.974 292.795 821.679 293.148 822.441 293.188C823.094 293.223 823.9 293.085 824.286 293.616C824.673 294.148 824.374 294.851 824.741 295.323C825.331 296.073 826.77 295.323 827.411 296.03C827.587 296.301 827.721 296.597 827.81 296.907C827.907 297.099 828.043 297.269 828.209 297.407C828.248 297.631 828.264 297.858 828.256 298.086C828.173 299.008 827.98 299.916 827.682 300.793C827.204 302.404 826.727 304.017 826.251 305.631C826.07 306.201 825.936 306.786 825.853 307.378C825.823 307.665 825.823 307.955 825.853 308.243C825.936 309.12 826.443 310.025 827.284 310.311C827.936 310.483 828.63 310.397 829.221 310.073C829.791 309.776 830.326 309.417 830.815 309.001C831.698 308.336 832.473 307.541 833.115 306.643C835.108 303.674 834.463 299.658 835.862 296.375C836.79 294.184 838.6 292.406 839.202 290.096C839.343 289.656 839.359 289.187 839.25 288.738C838.999 287.944 838.15 287.492 837.356 287.206H837.321C836.669 286.975 836.003 286.786 835.328 286.639C835.16 286.603 834.989 286.575 834.817 286.547C834.438 286.24 834.136 285.848 833.936 285.404C833.905 285.168 833.842 284.937 833.749 284.717C833.686 284.623 833.601 284.545 833.501 284.489C833.401 284.434 833.289 284.403 833.175 284.4C832.776 284.36 832.242 284.503 831.808 284.471C830.919 284.408 830.329 283.539 829.532 283.138C828.735 282.737 827.87 282.836 827.021 282.896C826.717 282.937 826.408 282.918 826.112 282.84C825.758 282.678 825.434 282.456 825.155 282.185C824.665 281.805 824.092 281.544 823.483 281.422C822.873 281.3 822.244 281.321 821.644 281.482C821.262 281.636 820.858 281.727 820.448 281.752C819.67 281.709 819.12 281.018 818.546 280.494C816.976 279.061 814.74 278.684 812.834 277.743C812.543 277.635 812.3 277.427 812.149 277.156C811.93 276.616 812.424 276.076 812.87 275.707L816.147 272.996C819.734 270.027 824.219 267.793 825.885 263.438C826.058 262.855 826.328 262.303 826.682 261.807C826.811 261.656 826.96 261.522 827.124 261.41C827.849 260.942 828.727 260.772 829.576 260.934C830.609 261.164 831.589 261.59 832.462 262.188C833.889 263.048 835.277 263.974 836.627 264.967C837.964 265.918 839.236 266.958 840.434 268.078C842.526 270.063 844.268 272.417 846.217 274.556C848.167 276.696 850.395 278.692 853.101 279.716C855.808 280.74 859.08 280.697 861.404 278.978C864.087 276.993 864.948 273.445 865.625 270.19C867.12 268.753 867.57 266.566 868.3 264.633C868.758 263.407 869.344 262.252 869.838 261.029C870.428 259.592 870.891 258.108 871.353 256.627C871.877 255.14 872.233 253.6 872.413 252.035C872.605 249.562 871.939 246.93 872.637 244.608C873.557 244.406 874.394 243.89 875.299 243.588C876.647 243.148 878.09 243.219 879.517 243.227H879.608C880.1 243.279 880.595 243.163 881.011 242.898C881.49 242.501 881.565 241.822 881.589 241.207C881.645 239.687 881.549 237.98 880.405 236.995ZM822.652 169.288C822.322 169.37 821.981 169.394 821.644 169.36L822.652 169.288Z" fill="url(#paint1_linear)"/>
<path d="M824.222 194.398C823.74 194.806 823.174 195.105 822.564 195.275L819.738 196.283C818.204 196.831 816.601 197.383 814.983 197.184C814.078 197.073 810.2 196.505 809.614 195.803C808.721 194.715 811.85 193.116 812.918 192.199C813.16 192.025 813.385 191.829 813.588 191.611C813.986 191.127 813.935 190.448 813.879 189.837C813.676 188.289 813.607 186.726 813.671 185.165C813.702 184.793 813.756 184.424 813.831 184.058C814.229 182.232 815.935 182.899 817.283 183.383C818.905 183.908 820.473 184.584 821.966 185.403C822.421 185.637 822.817 185.971 823.122 186.38C823.712 187.269 823.477 188.436 823.381 189.555C823.298 190.424 823.302 191.258 823.848 191.889C824.123 192.13 824.375 192.396 824.601 192.683C824.729 192.972 824.761 193.294 824.693 193.602C824.625 193.91 824.46 194.189 824.222 194.398Z" fill="#BE6F72"/>
<path d="M785.183 165.791C785.582 164.033 785.67 162.219 786.148 160.477C786.486 159.344 786.904 158.236 787.4 157.162L789.158 153.078C789.318 152.596 789.604 152.164 789.987 151.828C790.396 151.575 790.872 151.448 791.354 151.463C793.072 151.399 794.877 151.931 796.049 153.189C797.221 154.447 797.592 156.484 796.659 157.924C795.543 159.659 793.108 160.008 791.653 161.469C790.724 162.402 790.274 163.7 789.999 164.982C789.273 168.316 789.516 171.773 789.293 175.179C789.221 176.238 789.014 177.449 788.097 177.997C787.543 178.267 786.927 178.386 786.311 178.342L783.697 178.386C783.258 178.386 781.668 178.66 781.377 178.33C780.867 177.755 782.031 174.889 782.242 174.25C782.712 172.833 783.29 171.452 783.836 170.058C784.311 168.816 785.183 167.137 785.183 165.791Z" fill="#BE6F72"/>
<path d="M839.174 290.489C838.572 292.783 836.762 294.569 835.834 296.756C834.435 300.031 835.064 304.036 833.087 306.997C832.446 307.896 831.67 308.693 830.787 309.358C830.298 309.773 829.763 310.131 829.193 310.426C828.602 310.751 827.908 310.836 827.256 310.664C826.415 310.378 825.909 309.474 825.825 308.6C825.795 308.314 825.795 308.025 825.825 307.739C825.909 307.148 826.042 306.565 826.223 305.996C826.702 304.39 827.179 302.781 827.654 301.17C827.952 300.296 828.145 299.39 828.228 298.471C828.28 297.471 827.642 296.169 827.913 295.236C828.037 294.815 828.499 294.442 828.711 294.089C829.011 293.58 829.241 293.034 829.396 292.465C829.723 291.358 829.946 290.175 830.632 289.242C831.079 288.689 831.603 288.201 832.186 287.794C832.617 287.417 833.122 287.135 833.669 286.964C834.2 286.871 834.744 286.897 835.264 287.039C835.94 287.183 836.606 287.372 837.257 287.603H837.293C838.09 287.889 838.935 288.329 839.186 289.131C839.308 289.576 839.304 290.046 839.174 290.489Z" fill="#3F3D56"/>
<path d="M881.585 241.691C881.561 242.306 881.485 242.993 881.007 243.378C880.591 243.643 880.096 243.759 879.604 243.707H879.496C878.073 243.707 876.627 243.628 875.279 244.069C874.255 244.406 873.314 245.025 872.246 245.148C870.775 245.315 869.392 244.513 868.089 243.815C866.861 243.156 865.601 242.56 864.314 242.028C863.469 241.683 861.743 241.461 861.336 240.54C861.197 240.104 861.08 239.662 860.986 239.214C860.919 239.014 860.837 238.819 860.742 238.631C860.503 238.229 860.351 237.781 860.296 237.317C860.298 236.854 860.458 236.406 860.75 236.047C861.076 235.663 861.474 235.348 861.922 235.118C862.37 234.889 862.859 234.75 863.361 234.709C864.366 234.631 865.376 234.685 866.367 234.868L876.18 236.273C876.937 236.38 877.699 236.487 878.444 236.67C879.152 236.792 879.819 237.084 880.389 237.519C881.549 238.488 881.645 240.191 881.585 241.691Z" fill="#3F3D56"/>
<path d="M872.96 244.231C871.764 246.744 872.625 249.717 872.409 252.495C872.229 254.057 871.873 255.593 871.349 257.076C870.887 258.552 870.424 260.033 869.835 261.466C869.34 262.656 868.754 263.847 868.296 265.062C867.566 266.999 867.1 269.178 865.621 270.619C864.944 273.866 864.083 277.414 861.4 279.383C859.068 281.097 855.82 281.157 853.097 280.121C850.375 279.085 848.163 277.1 846.213 274.961C844.264 272.822 842.522 270.492 840.43 268.499C839.23 267.378 837.956 266.34 836.615 265.391C835.265 264.415 833.877 263.497 832.45 262.637C831.576 262.041 830.597 261.617 829.564 261.386C828.716 261.224 827.837 261.395 827.112 261.863C826.948 261.975 826.799 262.108 826.67 262.26C826.315 262.754 826.046 263.304 825.873 263.887C824.199 268.229 819.706 270.46 816.119 273.421L812.842 276.124C812.396 276.493 811.902 277.033 812.121 277.569C812.272 277.84 812.515 278.048 812.807 278.156C814.712 279.093 816.948 279.47 818.519 280.899C819.093 281.423 819.643 282.114 820.42 282.153C820.83 282.129 821.234 282.04 821.616 281.887C822.215 281.726 822.845 281.705 823.454 281.826C824.063 281.947 824.636 282.207 825.127 282.586C825.406 282.857 825.73 283.079 826.084 283.241C826.38 283.319 826.689 283.338 826.993 283.296C827.842 283.237 828.743 283.162 829.504 283.539C830.265 283.916 830.891 284.805 831.78 284.868C832.214 284.9 832.733 284.757 833.147 284.797C833.261 284.8 833.373 284.831 833.473 284.886C833.573 284.942 833.658 285.02 833.721 285.114C833.814 285.332 833.877 285.562 833.909 285.797C834.072 286.357 834.622 286.698 834.981 287.159C835.531 287.865 835.611 288.826 835.555 289.719C835.374 292.511 834.124 295.128 832.063 297.03C831.478 297.626 830.731 298.039 829.915 298.221C829.506 298.306 829.08 298.261 828.698 298.092C828.316 297.923 827.997 297.639 827.786 297.28C827.697 296.971 827.563 296.677 827.387 296.407C826.746 295.704 825.307 296.45 824.717 295.7C824.35 295.232 824.613 294.482 824.262 293.997C823.912 293.513 823.067 293.601 822.417 293.573C821.656 293.533 820.95 293.176 820.213 292.989C819.017 292.68 817.765 292.795 816.541 292.711C815.525 292.622 814.515 292.463 813.52 292.235L808.45 291.203C805.221 290.548 801.981 289.885 798.907 288.714C797.731 288.27 796.548 287.722 795.719 286.77C795.05 285.932 794.621 284.932 794.475 283.872C793.753 279.637 797.58 276.017 798.062 271.75C798.234 270.194 798.86 268.725 799.449 267.281C800.531 264.698 801.61 262.114 802.686 259.529C802.86 259.047 803.087 258.587 803.364 258.155C803.822 257.603 804.34 257.101 804.906 256.659C806.417 255.294 807.5 253.525 808.027 251.562C808.066 251.344 808.158 251.139 808.294 250.963C808.436 250.845 808.591 250.745 808.757 250.665C809.041 250.481 809.256 250.206 809.365 249.886C809.474 249.566 809.472 249.218 809.359 248.899C809.606 248.879 809.838 248.771 810.012 248.594C810.186 248.418 810.291 248.185 810.307 247.939C810.278 247.724 810.292 247.505 810.347 247.296C810.443 247.089 810.682 246.986 810.822 246.803C811.049 246.506 810.969 246.089 810.933 245.716C810.909 245.48 810.909 245.242 810.933 245.005C811.02 244.165 811.398 243.381 812.001 242.787C812.954 241.854 814.309 242.096 815.625 241.874C816.937 241.592 818.218 241.183 819.451 240.655C822.91 239.298 826.552 238.459 830.257 238.166C833.982 237.875 837.722 238.468 841.171 239.897C841.673 240.099 842.146 240.366 842.578 240.691C842.885 240.926 843.137 241.226 843.316 241.568C843.463 241.988 843.644 242.396 843.858 242.787C844.284 243.366 845.089 243.553 845.556 244.1C846.022 244.648 846.062 245.573 846.449 246.252C847.003 247.22 848.286 247.669 848.669 248.721C848.788 249.054 848.804 249.419 848.892 249.764C849.107 250.63 849.753 251.312 850.323 251.995C852.413 254.484 853.75 257.512 854.181 260.727C854.309 258.715 855.668 256.933 857.37 255.821C857.829 255.524 858.359 255.194 858.45 254.655C858.566 253.972 857.9 253.365 857.944 252.67C857.993 252.331 858.13 252.01 858.343 251.741C859.102 250.645 859.936 249.601 860.838 248.617C861.328 248.081 861.878 247.427 861.675 246.72C861.52 246.192 860.978 245.883 860.679 245.422C860.504 245.148 860.415 244.828 860.422 244.503C860.429 244.178 860.532 243.863 860.718 243.596C860.998 243.219 861.44 242.945 861.575 242.497C861.731 241.969 861.384 241.397 861.492 240.854C861.637 240.418 861.927 240.045 862.313 239.794C862.842 239.314 863.443 238.92 864.095 238.627C865.147 238.23 866.319 238.377 867.435 238.532C869.3 238.79 871.393 239.186 872.445 240.742C873.119 241.715 873.462 243.191 872.96 244.231Z" fill="#65617D"/>
<path opacity="0.1" d="M881.585 241.691C881.561 242.306 881.486 242.993 881.007 243.378C880.591 243.643 880.096 243.76 879.604 243.707H879.497C879.66 242.882 880.668 242.409 880.844 241.572C880.874 241.315 880.85 241.054 880.775 240.806C880.699 240.558 880.574 240.329 880.405 240.131C879.552 238.984 878.181 238.349 876.818 237.885C872.967 236.57 868.841 236.262 864.836 236.991C863.747 237.168 862.687 237.493 861.687 237.956C861.355 238.163 861.036 238.388 860.73 238.631C860.491 238.229 860.339 237.781 860.284 237.317C860.286 236.854 860.446 236.406 860.738 236.047C861.064 235.663 861.462 235.348 861.91 235.118C862.358 234.889 862.847 234.75 863.349 234.709C864.354 234.631 865.364 234.685 866.355 234.868L876.168 236.273C876.926 236.38 877.687 236.487 878.432 236.67C879.14 236.792 879.808 237.084 880.377 237.519C881.549 238.488 881.645 240.191 881.585 241.691Z" fill="black"/>
<path opacity="0.1" d="M839.174 290.489C838.572 292.783 836.762 294.569 835.834 296.756C834.435 300.031 835.064 304.036 833.087 306.997C832.446 307.896 831.67 308.693 830.787 309.358C830.298 309.773 829.763 310.131 829.193 310.426C828.602 310.751 827.908 310.836 827.256 310.664C826.415 310.378 825.909 309.474 825.825 308.6C825.795 308.314 825.795 308.025 825.825 307.739L825.849 307.802C826.195 308.636 826.762 309.509 827.654 309.656C827.99 309.68 828.326 309.635 828.643 309.524C828.96 309.412 829.25 309.237 829.496 309.009C830.811 307.957 831.577 306.389 832.306 304.877C832.877 303.787 833.329 302.638 833.653 301.452C833.813 300.777 833.888 300.086 834.052 299.411C834.809 296.133 837.388 293.458 837.958 290.135C838.005 289.907 838.015 289.673 837.99 289.441C837.915 289.138 837.8 288.847 837.647 288.575C837.509 288.268 837.407 287.946 837.344 287.615C838.142 287.901 838.987 288.341 839.238 289.143C839.341 289.589 839.319 290.054 839.174 290.489Z" fill="black"/>
<path opacity="0.1" d="M833.155 284.797C832.786 285.757 832.165 286.602 831.357 287.242C830.223 288.103 828.894 288.675 827.487 288.909C826.832 289.075 826.145 289.067 825.494 288.885C824.609 288.579 823.971 287.754 823.067 287.516C822.421 287.341 821.727 287.496 821.074 287.401C819.898 287.238 818.985 286.345 818.036 285.63C815.13 283.455 811.316 282.753 808.41 280.578C808.281 280.498 808.174 280.388 808.099 280.256C808.043 280.113 808.023 279.96 808.039 279.807C808.05 278.488 808.348 277.187 808.912 275.993C809.374 275.16 809.925 274.379 810.554 273.663C813.157 270.488 815.772 267.289 818.889 264.609C820.197 263.486 821.624 262.438 823.274 261.93C824.191 261.648 826 261.382 827.116 261.859C826.952 261.971 826.803 262.104 826.674 262.256C826.319 262.75 826.05 263.3 825.877 263.883C824.199 268.229 819.706 270.46 816.119 273.421L812.842 276.124C812.396 276.493 811.902 277.033 812.121 277.569C812.272 277.84 812.515 278.048 812.807 278.156C814.712 279.093 816.948 279.47 818.519 280.899C819.092 281.423 819.643 282.114 820.42 282.153C820.83 282.129 821.234 282.04 821.616 281.887C822.215 281.726 822.845 281.705 823.454 281.826C824.063 281.947 824.636 282.207 825.127 282.586C825.406 282.857 825.73 283.079 826.084 283.241C826.38 283.319 826.689 283.338 826.993 283.296C827.842 283.237 828.743 283.161 829.504 283.539C830.265 283.916 830.891 284.805 831.78 284.868C832.222 284.9 832.741 284.749 833.155 284.797Z" fill="black"/>
<path d="M796.496 230.926C795.738 231.411 794.933 231.958 794.622 232.8C794.367 233.487 794.487 234.273 794.18 234.939C793.873 235.606 793.183 236.071 793.032 236.785C792.924 237.305 793.135 237.853 793.032 238.373C792.942 238.643 792.868 238.919 792.813 239.198C792.773 239.79 793.283 240.27 793.781 240.599C794.842 241.287 796.05 241.716 797.308 241.854C798.566 241.992 799.838 241.834 801.024 241.393C802.088 240.996 803.049 240.349 804.069 239.841C805.064 239.271 806.202 238.995 807.35 239.048C808.007 239.119 808.637 239.357 809.295 239.444C809.62 239.508 809.955 239.493 810.272 239.399C810.59 239.305 810.879 239.135 811.116 238.905C811.319 238.625 811.456 238.304 811.515 237.964C812.069 235.785 811.818 233.475 811.292 231.284C810.766 229.093 809.968 226.985 809.406 224.806C809.008 223.19 808.701 221.535 808.035 220.007C807.369 218.479 806.249 217.058 804.683 216.475C804.559 216.414 804.419 216.396 804.284 216.423C804.184 216.465 804.095 216.53 804.025 216.613C802.786 217.921 801.852 219.485 801.291 221.194C800.665 223.095 800.494 225.112 799.92 227.021C799.673 227.815 799.354 228.878 798.724 229.486C798.094 230.093 797.209 230.47 796.496 230.926Z" fill="#3F3D56"/>
<path opacity="0.1" d="M811.527 237.952C811.46 238.293 811.317 238.614 811.108 238.893C810.872 239.124 810.582 239.294 810.265 239.387C809.947 239.48 809.611 239.495 809.287 239.429C808.633 239.349 808.003 239.107 807.346 239.032C806.198 238.979 805.06 239.254 804.065 239.825C803.045 240.334 802.072 240.965 801.016 241.373C799.471 241.957 797.782 242.053 796.181 241.647C795.33 241.434 794.522 241.08 793.789 240.599C793.287 240.274 792.781 239.806 792.821 239.198C792.876 238.92 792.95 238.646 793.04 238.377C793.143 237.857 792.936 237.309 793.04 236.789C793.191 236.075 793.885 235.598 794.188 234.939C794.491 234.28 794.375 233.491 794.626 232.804C794.937 231.958 795.746 231.415 796.504 230.926C797.261 230.438 798.162 230.065 798.768 229.474C798.846 229.382 798.917 229.283 798.979 229.18C799.416 228.509 799.737 227.77 799.928 226.993C800.514 225.08 800.673 223.067 801.295 221.162C801.859 219.455 802.794 217.892 804.033 216.586C804.099 216.5 804.188 216.435 804.288 216.395C804.423 216.368 804.563 216.385 804.687 216.443C806.249 217.03 807.369 218.451 808.039 219.979C808.709 221.507 808.992 223.155 809.41 224.774C809.968 226.953 810.77 229.069 811.296 231.256C811.822 233.443 812.081 235.769 811.527 237.952Z" fill="black"/>
<path opacity="0.1" d="M823.381 189.543C821.507 190.136 819.479 190.019 817.686 189.213C815.894 188.407 814.464 186.969 813.672 185.177C813.703 184.805 813.756 184.435 813.831 184.07C814.23 182.244 815.936 182.911 817.283 183.395C818.905 183.92 820.473 184.596 821.966 185.415C822.421 185.649 822.817 185.983 823.122 186.392C823.712 187.269 823.477 188.436 823.381 189.543Z" fill="black"/>
<path d="M820.974 189.52C825.377 189.52 828.946 185.965 828.946 181.581C828.946 177.197 825.377 173.643 820.974 173.643C816.571 173.643 813.002 177.197 813.002 181.581C813.002 185.965 816.571 189.52 820.974 189.52Z" fill="#BE6F72"/>
<path opacity="0.1" d="M842.606 240.905C842.606 241.564 841.709 241.774 841.043 241.739C838.652 241.6 836.312 240.945 833.944 241.143C830.951 241.413 828.2 243.06 825.199 243.211C824.043 243.271 822.867 243.1 821.727 243.31C820.252 243.584 818.937 244.477 817.434 244.604C816.131 244.716 814.843 244.227 813.54 244.279C812.629 244.333 811.74 244.585 810.937 245.017C811.024 244.177 811.402 243.392 812.005 242.798C812.958 241.866 814.313 242.108 815.629 241.885C816.941 241.603 818.222 241.195 819.455 240.667C822.914 239.31 826.555 238.471 830.261 238.178C833.983 237.883 837.722 238.473 841.171 239.897C841.673 240.099 842.146 240.366 842.578 240.691C842.6 240.76 842.609 240.833 842.606 240.905Z" fill="black"/>
<path d="M817.287 196.077L814.058 194.886L812.695 194.386C812.139 194.154 811.555 193.999 810.957 193.925C809.394 193.806 807.924 194.842 807.091 196.164C806.257 197.486 805.943 199.061 805.675 200.598C805.309 202.699 804.998 204.808 804.743 206.925C804.468 208.836 804.328 210.765 804.324 212.696C804.416 217.61 805.46 222.456 806.608 227.239C807.17 229.36 807.595 231.514 807.88 233.689C807.975 234.586 808.019 235.487 808.115 236.388C808.219 237.4 808.386 238.4 808.553 239.405L809.514 245.108C810.71 244.263 812.069 243.521 813.54 243.477C814.843 243.429 816.135 243.914 817.434 243.803C818.929 243.68 820.252 242.786 821.727 242.513C822.867 242.302 824.043 242.469 825.203 242.413C828.2 242.263 830.955 240.611 833.944 240.345C836.316 240.131 838.672 240.798 841.047 240.937C841.709 240.976 842.606 240.766 842.606 240.103C842.606 239.643 842.144 239.337 841.741 239.107C839.843 237.969 838.037 236.686 836.34 235.269C834.769 234.03 833.175 232.76 832.095 231.085C829.492 227.056 830.385 221.607 828.165 217.356C826.359 213.902 828.165 209.377 828.165 205.484C828.165 203.543 828.165 201.578 827.706 199.693C827.42 198.638 827.063 197.604 826.638 196.597L825.087 192.687C825.055 192.573 824.992 192.47 824.904 192.389C824.8 192.318 824.676 192.28 824.549 192.282C823.618 192.226 822.7 192.519 821.974 193.104C821.245 193.695 820.779 194.544 820.061 195.16C819.276 195.838 818.263 196.434 817.287 196.077Z" fill="#E3E8F4"/>
<path d="M822.496 193.822C822.752 192.735 823.027 191.603 823.756 190.754C824.485 189.905 825.817 189.456 826.757 190.063C827.826 190.754 827.87 192.35 828.782 193.239C829.58 194.001 830.775 194.06 831.86 194.16C833.809 194.336 835.724 194.785 837.548 195.493C837.903 195.603 838.227 195.796 838.492 196.057C838.991 196.62 838.891 197.486 839.138 198.188C839.477 199.093 840.414 199.669 840.776 200.57C841.175 201.57 840.776 202.689 840.441 203.717C839.84 205.563 839.461 207.48 838.875 209.334C838.289 211.188 837.456 213.013 836.085 214.411C835.479 215.03 834.578 215.601 833.781 215.232L833.474 217.435C833.384 217.901 833.384 218.379 833.474 218.844C833.52 219.077 833.632 219.292 833.795 219.465C833.959 219.638 834.168 219.761 834.399 219.821C834.458 220.162 834.821 220.325 835.116 220.511C835.334 220.66 835.52 220.849 835.663 221.07C835.807 221.29 835.905 221.537 835.952 221.795C835.999 222.054 835.994 222.319 835.938 222.575C835.881 222.832 835.774 223.075 835.622 223.29C835.371 223.627 835.001 223.893 834.881 224.294C834.702 224.873 835.128 225.485 835.646 225.802C836.164 226.12 836.774 226.267 837.301 226.572C838.393 227.199 838.979 228.434 839.353 229.633C839.632 230.538 839.863 231.518 840.549 232.177C840.812 232.427 841.127 232.617 841.378 232.879C841.813 233.391 842.064 234.032 842.092 234.701C842.201 235.531 842.018 236.373 841.573 237.083C840.776 238.218 839.29 238.555 837.986 239.067C835.87 239.933 834.128 241.481 832.262 242.798C831.502 243.408 830.607 243.827 829.651 244.021C828.36 244.192 827.088 243.624 825.789 243.572C825.011 243.58 824.238 243.681 823.485 243.874L821.093 244.39C821.221 242.544 820.201 240.695 819.631 238.936C818.554 235.626 818.355 232.085 818.61 228.616C818.865 225.147 819.575 221.726 820.276 218.32C820.767 215.939 820.719 213.45 821.472 211.136C822.178 208.909 823.186 206.77 823.557 204.452C824.163 200.701 821.643 197.521 822.496 193.822Z" fill="#3F3D56"/>
<path d="M840.629 201.161C840.849 201.565 841.003 202 841.087 202.451C841.272 203.15 841.617 203.797 842.096 204.341C842.497 204.693 842.853 205.093 843.156 205.531C843.523 206.222 843.383 207.064 843.555 207.818C843.754 208.639 844.332 209.354 844.416 210.199C844.418 210.441 844.441 210.683 844.483 210.922C844.742 211.882 846.161 212.112 846.476 213.073C846.688 213.696 846.325 214.375 846.393 215.03C846.442 215.232 846.454 215.442 846.429 215.649C846.338 215.883 846.18 216.085 845.974 216.228C844.655 217.483 843.742 219.102 843.351 220.876C842.967 222.641 842.766 224.441 842.749 226.247L841.191 224.195C841.026 223.946 840.815 223.73 840.569 223.56C840.37 223.441 840.139 223.381 839.935 223.262C839.345 222.929 839.114 222.222 838.887 221.587C838.256 219.829 837.311 218.199 836.097 216.776C835.463 216.034 834.726 215.288 834.586 214.323C834.544 213.88 834.568 213.433 834.658 212.998C835.056 210.398 835.483 207.734 836.754 205.428C837.348 204.349 838.118 203.372 838.688 202.277C839.07 201.55 839.608 199.661 840.629 201.161Z" fill="#3F3D56"/>
<path d="M801.307 203.658C801.314 203.992 801.229 204.322 801.06 204.61C800.907 204.786 800.709 204.916 800.486 204.987C800.264 205.057 800.026 205.064 799.8 205.007C799.346 204.894 798.919 204.694 798.541 204.42C797.43 203.721 796.319 203.021 795.208 202.32C794.588 201.948 793.991 201.54 793.419 201.098C792.544 200.363 791.752 199.536 791.055 198.633C789.118 196.251 787.404 193.667 785.247 191.488C784.661 190.893 784.051 190.321 783.485 189.698C782.712 188.797 782.001 187.845 781.357 186.848C780.735 185.931 780.089 184.915 780.197 183.82C780.261 183.2 780.56 182.629 780.647 182.014C780.735 181.398 780.5 180.648 779.902 180.482C779.831 180.464 779.759 180.452 779.687 180.446C779.569 180.433 779.452 180.408 779.34 180.37C778.786 180.14 778.87 179.287 779.268 178.838C779.667 178.39 780.257 178.14 780.619 177.647C780.788 177.355 780.977 177.076 781.185 176.81C781.452 176.582 781.771 176.423 782.114 176.346C784.413 175.671 786.846 175.579 789.189 176.08C789.588 176.167 790.042 176.326 790.162 176.711C790.21 176.898 790.21 177.095 790.162 177.282C789.986 178.065 789.885 178.862 789.859 179.664C789.858 179.831 789.868 179.998 789.887 180.164C790.074 181.847 791.17 183.272 792.239 184.586C793.506 186.15 794.794 187.702 796.085 189.25C796.784 190.147 797.564 190.977 798.417 191.73C799.214 192.389 800.247 192.921 800.868 193.767C801.375 194.449 801.211 195.382 801.267 196.204C801.452 198.684 801.466 201.175 801.307 203.658Z" fill="#3F3D56"/>
<path d="M851.929 220.218C852.323 219.836 852.678 219.418 852.99 218.967C853.325 218.409 853.592 217.814 853.787 217.193L856.099 210.664C856.465 209.632 856.832 208.596 857.294 207.591C857.773 206.508 858.339 205.464 858.861 204.416C860.204 201.658 861.242 198.764 861.958 195.783C862.084 195.373 862.126 194.943 862.082 194.517C861.97 193.83 861.448 193.294 860.95 192.806C860.448 192.267 859.877 191.797 859.252 191.409C858.937 191.214 858.587 191.084 858.222 191.025C857.856 190.967 857.483 190.981 857.123 191.067C856.103 191.365 855.461 192.405 855.226 193.449C854.991 194.493 855.078 195.561 854.979 196.624C854.835 198.149 854.309 199.621 854.181 201.149C854.114 202.034 854.181 202.928 854.074 203.809C853.878 204.966 853.472 206.078 852.878 207.091C851.583 209.505 849.833 211.648 847.724 213.402C847.146 213.827 846.626 214.325 846.178 214.883C845.803 215.441 845.549 216.071 845.432 216.733C845.167 217.74 845.282 218.809 845.755 219.737C846.405 220.841 847.652 221.325 848.844 221.571C850.455 221.904 850.825 221.357 851.929 220.218Z" fill="#BE6F72"/>
<path d="M821.022 170.078C821.365 169.436 821.89 168.909 822.533 168.562C823.175 168.216 823.905 168.065 824.633 168.129C825.366 168.259 826.048 168.59 826.602 169.085C827.155 169.58 827.559 170.22 827.766 170.932C827.953 171.523 828.029 172.178 828.356 172.686C828.85 173.452 829.767 173.674 830.453 174.23C830.862 174.609 831.191 175.065 831.421 175.572C831.651 176.079 831.777 176.627 831.792 177.183C831.83 178.319 831.65 179.452 831.262 180.521C831.097 180.977 830.964 181.444 830.863 181.918C830.783 182.379 830.775 182.847 830.704 183.308C830.615 183.905 830.408 184.478 830.094 184.994C829.78 185.51 829.365 185.958 828.874 186.312C828.734 186.426 828.56 186.489 828.38 186.491C828.069 186.455 827.878 186.094 827.762 185.769C827.128 183.947 827.28 181.72 826.112 180.267C825.581 179.681 824.939 179.205 824.222 178.866C823.931 178.679 823.602 178.555 823.258 178.505C822.752 178.532 822.267 178.709 821.863 179.013C821.021 179.575 820.088 179.986 819.104 180.228C818.614 180.343 818.103 180.349 817.61 180.243C817.117 180.137 816.654 179.923 816.254 179.616C815.704 179.164 815.302 178.485 814.692 178.132C814.082 177.779 813.444 177.798 812.842 177.556C812.459 177.394 812.118 177.146 811.845 176.833C811.572 176.519 811.374 176.147 811.267 175.746C811.16 175.345 811.147 174.925 811.228 174.518C811.309 174.11 811.482 173.727 811.734 173.397C812.133 172.92 812.723 172.65 813.078 172.122C813.536 171.44 813.496 170.503 813.715 169.685C813.845 169.168 814.097 168.689 814.45 168.288C814.803 167.887 815.246 167.575 815.744 167.379C816.227 167.216 816.745 167.185 817.244 167.289C817.744 167.393 818.206 167.628 818.582 167.971C818.981 168.328 819.3 168.788 819.69 169.161C820.076 169.529 820.548 169.794 821.064 169.933C821.579 170.072 822.121 170.079 822.64 169.955" fill="#3F3D56"/>
<path opacity="0.1" d="M827.575 228.501C827.343 228.707 827.178 228.978 827.103 229.278C827.027 229.578 827.045 229.894 827.152 230.184C827.24 230.371 831.353 229.581 831.788 229.521C832.872 229.367 834.773 229.442 835.503 228.454C836.802 226.703 832.776 227.092 832.039 227.156C830.636 227.275 828.643 227.465 827.575 228.501Z" fill="black"/>
<path d="M790.154 177.298C789.978 178.081 789.877 178.878 789.851 179.68C788.655 179.922 787.412 179.525 786.264 179.128L782.967 178.009C782.767 177.881 782.525 177.834 782.291 177.878C782.057 177.921 781.848 178.052 781.708 178.243C781.178 178.791 780.448 179.831 779.715 180.446C779.597 180.433 779.48 180.408 779.368 180.37C778.814 180.14 778.898 179.287 779.296 178.838C779.695 178.39 780.285 178.14 780.647 177.647C780.816 177.355 781.005 177.076 781.213 176.81C781.48 176.582 781.799 176.423 782.142 176.346C784.441 175.671 786.874 175.579 789.217 176.08C789.616 176.167 790.07 176.326 790.19 176.711C790.229 176.906 790.216 177.109 790.154 177.298Z" fill="#3F3D56"/>
<path opacity="0.1" d="M790.154 177.298C789.978 178.081 789.877 178.878 789.851 179.68C788.655 179.922 787.412 179.525 786.264 179.128L782.967 178.009C782.767 177.881 782.525 177.834 782.291 177.878C782.057 177.921 781.848 178.052 781.708 178.243C781.178 178.791 780.448 179.831 779.715 180.446C779.597 180.433 779.48 180.408 779.368 180.37C778.814 180.14 778.898 179.287 779.296 178.838C779.695 178.39 780.285 178.14 780.647 177.647C780.816 177.355 781.005 177.076 781.213 176.81C781.48 176.582 781.799 176.423 782.142 176.346C784.441 175.671 786.874 175.579 789.217 176.08C789.616 176.167 790.07 176.326 790.19 176.711C790.229 176.906 790.216 177.109 790.154 177.298Z" fill="black"/>
<path opacity="0.1" d="M820.308 252.654C820.882 252.845 821.504 253.122 821.699 253.694L817.084 252.527L814.692 251.92C814.269 251.813 812.755 251.69 812.476 251.36C812.077 250.876 813.492 251.209 813.747 251.245C814.521 251.36 815.294 251.479 816.063 251.618C817.514 251.876 818.909 252.301 820.308 252.654Z" fill="black"/>
<path opacity="0.1" d="M822.098 256.722C821.699 256.457 820.555 256.488 820.065 256.373C819.348 256.203 818.642 255.976 817.937 255.758C816.506 255.294 815.087 254.766 813.616 254.424C813.345 254.365 812.42 254.349 812.464 254.008C812.508 253.666 813.389 253.547 813.608 253.531C814.911 253.436 816.537 254.043 817.749 254.476C819.294 255.027 820.756 255.782 822.098 256.722Z" fill="black"/>
<path opacity="0.1" d="M819.172 249.026C817.709 248.629 816.382 247.724 814.875 247.55C814.483 247.564 814.096 247.447 813.779 247.216C813.602 247.043 813.479 246.822 813.424 246.581C814.433 246.53 815.605 246.954 816.521 247.355C817.026 247.571 817.511 247.828 817.972 248.125C818.307 248.328 818.809 248.911 819.172 249.026Z" fill="black"/>
<path d="M847.058 213.486C846.811 215.136 847.169 216.82 848.066 218.229C848.964 219.638 850.341 220.678 851.945 221.158C851.75 222.099 850.773 222.619 850.084 223.29C849.111 224.23 848.609 225.639 847.461 226.354C846.181 227.148 844.535 226.838 843.076 226.505C842.944 226.49 842.821 226.426 842.733 226.326C842.703 226.279 842.682 226.226 842.67 226.171C842.187 224.413 841.872 222.536 842.367 220.773C842.765 219.273 843.722 217.995 844.487 216.669C845.253 215.343 845.324 213.922 847.058 213.486Z" fill="#3F3D56"/>
<path d="M811.419 190.726C809.877 190.838 808.378 191.292 807.035 192.056C806.142 192.564 805.225 193.247 804.205 193.124C803.603 193.056 803.009 192.727 802.423 192.885C802.093 193.018 801.785 193.2 801.51 193.425C801.371 193.536 801.205 193.608 801.029 193.636C800.853 193.664 800.673 193.646 800.506 193.584L800.107 199.077C799.956 201.165 799.808 203.297 800.31 205.333C800.57 206.373 801.14 207.317 801.203 208.373C801.267 209.429 801.171 210.513 801.247 211.58C801.319 212.569 801.538 213.541 801.594 214.53C801.706 216.395 801.243 218.245 800.797 220.059C800.123 222.734 799.717 225.469 798.405 227.89C798.038 228.561 797.608 229.243 797.608 230.006C797.608 230.101 797.608 230.192 797.632 230.283C797.233 230.502 796.863 230.708 796.524 230.922C795.766 231.411 794.957 231.954 794.646 232.8C794.395 233.487 794.511 234.272 794.208 234.935C793.905 235.598 793.211 236.071 793.06 236.785C792.952 237.305 793.16 237.853 793.06 238.373C792.97 238.642 792.896 238.916 792.841 239.194C792.801 239.79 793.307 240.27 793.809 240.595C794.542 241.076 795.35 241.43 796.201 241.643L798.581 232.236C800.75 228.242 802.555 224.061 803.974 219.745C804.379 218.334 804.901 216.959 805.532 215.633C805.983 214.883 806.383 214.103 806.728 213.299C807.091 212.299 807.127 211.215 807.302 210.159C807.51 208.927 807.823 207.715 808.239 206.536C808.669 205.261 809.167 203.991 809.255 202.654C809.387 200.74 808.689 198.72 809.43 196.95C809.745 196.287 810.155 195.674 810.646 195.128C811.675 193.874 812.611 192.56 813.64 191.306C813.106 190.738 812.217 190.678 811.419 190.726Z" fill="#3F3D56"/>
<g opacity="0.1">
<path opacity="0.1" d="M822.652 168.772L822.154 168.808L822.098 168.848C822.285 168.84 822.47 168.815 822.652 168.772Z" fill="black"/>
<path opacity="0.1" d="M831.772 177.012C831.689 177.802 831.518 178.579 831.262 179.33C831.097 179.787 830.964 180.253 830.863 180.728C830.783 181.188 830.775 181.656 830.704 182.117C830.615 182.714 830.408 183.287 830.094 183.803C829.78 184.319 829.365 184.768 828.874 185.122C828.734 185.235 828.56 185.298 828.38 185.3C828.069 185.264 827.878 184.903 827.762 184.578C827.128 182.756 827.28 180.529 826.112 179.076C825.58 178.49 824.938 178.014 824.222 177.675C823.93 177.488 823.602 177.365 823.258 177.314C822.752 177.341 822.266 177.518 821.863 177.822C821.021 178.384 820.088 178.795 819.104 179.037C818.614 179.153 818.103 179.158 817.61 179.052C817.117 178.946 816.654 178.732 816.254 178.425C815.704 177.973 815.302 177.294 814.692 176.941C814.082 176.588 813.444 176.608 812.842 176.365C812.466 176.206 812.131 175.963 811.862 175.657C811.593 175.35 811.397 174.988 811.288 174.595C811.274 174.546 811.263 174.495 811.256 174.444C811.156 174.887 811.167 175.348 811.288 175.786C811.397 176.178 811.593 176.541 811.862 176.848C812.131 177.154 812.466 177.396 812.842 177.556C813.444 177.798 814.122 177.802 814.692 178.132C815.262 178.461 815.704 179.164 816.254 179.616C816.654 179.923 817.117 180.137 817.61 180.243C818.103 180.348 818.614 180.343 819.104 180.227C820.088 179.986 821.021 179.575 821.863 179.013C822.266 178.709 822.752 178.532 823.258 178.505C823.602 178.555 823.93 178.679 824.222 178.866C824.93 179.212 825.562 179.692 826.084 180.279C827.252 181.732 827.1 183.959 827.734 185.78C827.85 186.11 828.041 186.467 828.352 186.503C828.543 186.504 828.729 186.436 828.874 186.312C829.367 185.957 829.783 185.507 830.098 184.989C830.413 184.471 830.62 183.895 830.708 183.296C830.779 182.835 830.787 182.367 830.867 181.906C830.968 181.432 831.101 180.965 831.266 180.509C831.654 179.44 831.834 178.307 831.796 177.171C831.788 177.124 831.78 177.068 831.772 177.012Z" fill="black"/>
</g>
<path d="M806.552 208.862L806.281 212.485C806.242 212.978 805.297 224.695 798.329 238.389C792.35 250.134 780.715 265.431 758.748 274.028C757.034 274.703 755.255 275.333 753.411 275.918L751.354 269.487C756.518 267.869 761.492 265.703 766.19 263.026C777.387 256.587 786.092 247.399 792.163 235.574C795.384 229.279 797.679 222.555 798.979 215.609H773.987V208.862H806.552Z" fill="white"/>
<path opacity="0.1" d="M756.058 274.032C778.021 265.435 789.66 250.142 795.635 238.397C802.602 224.703 803.551 212.994 803.587 212.493L803.858 208.869H806.648L806.377 212.493C806.341 212.986 805.392 224.703 798.425 238.397C792.446 250.142 780.811 265.435 758.848 274.032C757.134 274.707 755.353 275.338 753.507 275.926L753.235 275.08C754.197 274.739 755.138 274.39 756.058 274.032Z" fill="white"/>
<path d="M712.084 269.487L710.027 275.918C708.18 275.33 706.4 274.699 704.686 274.024C682.723 265.427 671.084 250.134 665.109 238.389C658.141 224.695 657.192 212.986 657.157 212.485L656.886 208.862H689.435V215.609H664.439C665.746 222.556 668.048 229.28 671.275 235.574C677.346 247.399 686.047 256.587 697.244 263.022C701.943 265.702 706.918 267.87 712.084 269.487Z" fill="white"/>
<path opacity="0.1" d="M707.373 274.032C685.41 265.435 673.77 250.142 667.795 238.397C660.828 224.703 659.879 212.994 659.843 212.493L659.572 208.869H656.782L657.053 212.493C657.089 212.986 658.038 224.703 665.005 238.397C670.984 250.142 682.619 265.435 704.582 274.032C706.296 274.707 708.077 275.338 709.924 275.926L710.195 275.08C709.235 274.739 708.295 274.39 707.373 274.032Z" fill="white"/>
<path d="M769.319 331.646V368.032H694.115V331.646L696.507 328.47C720.877 319.857 725.816 297.395 726.8 288.508C726.947 287.28 727.031 286.045 727.051 284.809H736.351C736.372 286.045 736.455 287.28 736.602 288.508C737.602 297.395 742.541 319.865 766.896 328.47L769.319 331.646Z" fill="white"/>
<path opacity="0.1" d="M769.319 331.646H694.115V336.21H769.319V331.646Z" fill="black"/>
<path opacity="0.1" d="M700.493 328.47C724.863 319.857 729.802 297.395 730.786 288.508C730.933 287.28 731.017 286.045 731.037 284.809H727.051C727.031 286.045 726.947 287.28 726.8 288.508C725.8 297.395 720.861 319.865 696.507 328.47L694.115 331.646V368.032H698.101V331.646L700.493 328.47Z" fill="white"/>
<path opacity="0.1" d="M682.691 208.862H689.435V215.609H683.289C683.047 213.386 682.848 211.137 682.691 208.862Z" fill="black"/>
<path opacity="0.1" d="M712.084 269.488L710.027 275.918C708.18 275.33 706.4 274.699 704.686 274.024C701.866 270.596 699.375 266.912 697.244 263.022C701.943 265.702 706.918 267.87 712.084 269.488Z" fill="black"/>
<path opacity="0.1" d="M751.35 269.487C756.514 267.869 761.488 265.703 766.186 263.026C764.054 266.917 761.563 270.601 758.744 274.032C757.03 274.707 755.251 275.337 753.407 275.922L751.35 269.487Z" fill="black"/>
<path opacity="0.1" d="M780.739 208.862C780.582 211.137 780.383 213.386 780.141 215.609H773.999V208.862H780.739Z" fill="black"/>
<path opacity="0.1" d="M736.618 288.508C733.381 289.133 730.053 289.133 726.816 288.508C726.963 287.28 727.047 286.045 727.067 284.809H736.367C736.387 286.045 736.471 287.28 736.618 288.508Z" fill="black"/>
<path d="M683.488 197.684C683.66 247.72 705.184 288.183 731.719 288.183C758.254 288.183 779.774 247.72 779.95 197.684H683.488Z" fill="white"/>
<path opacity="0.1" d="M692.058 197.684H683.488C683.66 247.72 705.184 288.183 731.719 288.183C733.155 288.18 734.588 288.059 736.004 287.821C711.474 283.741 692.222 244.997 692.058 197.684Z" fill="white"/>
<path d="M757.293 345.574H706.141V358.672H757.293V345.574Z" fill="#DD2052"/>
<path opacity="0.1" d="M708.532 347.36H757.293V345.574H706.141V358.672H708.532V347.36Z" fill="white"/>
<path d="M656.208 245.994C655.287 245.688 649.866 241.417 649.456 239.484C649.045 237.551 652.322 219.543 652.322 219.543C652.322 219.543 652.019 219.543 651.525 219.483V219.193L652.198 195.537C652.198 195.537 654.96 179.66 649.743 180.585C644.525 181.51 647.798 195.537 647.798 195.537C647.798 195.537 647.204 202.658 646.785 204.793C646.387 206.853 644.561 215.244 645.805 217.852C645.85 217.944 645.901 218.035 645.956 218.122C645.956 218.122 646.163 227.072 643.911 228.295C641.763 229.458 640.87 235.312 640.794 235.836L640.679 235.789C640.037 235.389 639.474 234.877 639.016 234.277C638.969 234.217 638.933 234.153 638.889 234.09C640.355 232.447 641.146 230.314 641.102 228.116C641.059 225.918 640.184 223.818 638.654 222.234C637.942 221.498 637.107 220.891 636.186 220.44C636.16 219.681 635.979 218.936 635.656 218.249C634.62 216.042 628.88 213.156 624.802 213.089C622.921 213.033 621.378 213.565 620.816 215.03C620.529 215.772 620.617 216.617 620.497 217.387C620.258 218.975 619.234 220.218 617.918 221.206C617.387 220.615 616.813 220.065 616.2 219.559C614.869 218.542 612.214 215.192 612.214 215.192C612.214 215.192 603.928 206.647 603.314 204.305C602.7 201.963 594.421 187.9 592.579 190.349C590.738 192.798 598.921 203.471 598.921 203.471C598.921 203.471 600.476 207.349 601.671 208.659C602.867 209.969 612.035 223.226 612.035 223.226L612.474 224.131C610.536 225.147 608.767 226.441 608.141 228.458C607.224 231.427 609.229 234.411 610.616 237.19C613.319 242.612 613.705 249.526 610.217 254.48C607.092 258.854 601.671 260.934 596.597 262.752C599.048 264.668 602.092 265.674 605.207 265.598C604.035 268.979 599.882 270.099 596.342 270.726C598.2 272.504 600.858 273.151 603.409 273.544C604.659 273.756 605.925 273.855 607.192 273.842H607.503L607.814 273.818C608.246 273.789 608.676 273.735 609.101 273.655C610.943 273.282 612.733 272.282 613.673 270.662C614.471 269.277 614.75 267.388 616.196 266.693C616.573 266.524 616.979 266.428 617.392 266.411H617.348C617.619 266.411 617.899 266.411 618.17 266.411L624.2 266.471C624.451 266.471 624.711 266.471 624.97 266.471C626.672 266.431 628.489 266.137 629.354 264.736C629.71 264.056 629.897 263.301 629.9 262.533C630.028 260.632 629.9 258.675 629.952 256.758C630.466 260.247 631.005 265.685 629.725 267.693C628.686 269.215 627.426 270.576 625.986 271.73C625.624 272.033 625.293 272.371 624.998 272.738C624.802 272.877 624.687 272.953 624.687 272.953L624.563 273.322C624.109 274.008 623.78 274.768 623.591 275.568C623.521 275.774 623.495 275.991 623.515 276.207C623.654 276.489 622.518 277.652 622.849 278.14C620.011 281.455 619.473 286.476 619.473 286.476L614.291 294.311C611.628 301.277 607.642 301.992 607.642 301.992C607.642 301.992 598.279 295.736 598.024 295.43C597.769 295.125 594.19 293.597 594.19 293.597C593.768 292.86 593.123 292.274 592.348 291.922C591.12 291.414 591.017 289.54 591.017 289.54C590.865 285.114 588.255 284.777 588.255 284.777C586.15 284.598 584.544 284.971 583.308 285.654L582.933 285.682C581.124 285.829 578.947 285.992 576.556 286.15C569.903 286.587 568.32 290.878 568.32 290.878C568.32 290.878 567.503 291.795 568.576 292.787C569.648 293.779 576.512 292.787 576.803 292.763C576.28 292.819 575.751 292.783 575.24 292.656C576.32 292.616 577.807 292.576 579.075 292.576H579.382C579.302 293.246 579.263 293.919 579.266 294.593C579.266 295.863 582.794 296.677 582.794 296.677L593.536 306.203C593.536 306.203 600.288 309.208 604.585 313.53C608.882 317.853 612.681 314.121 612.681 314.121C617.229 313.002 630.315 297.248 630.327 297.232C630.327 297.693 630.602 313.014 631.124 316.09C631.145 316.246 631.184 316.399 631.24 316.547C631.854 317.868 631.032 321.48 630.678 323.005C630.451 324.28 630.365 325.576 630.419 326.871C630.419 326.871 625.512 345.526 625.918 347.165C626.325 348.805 623.26 356.422 623.26 356.422V362.772L623.794 362.744C623.724 362.847 623.66 362.953 623.602 363.062L623.567 363.129C623.567 363.129 626.839 363.84 629.039 363.638C631.24 363.435 635.018 365.324 635.018 365.324C635.018 365.324 636.298 365.928 640.236 366.182C644.174 366.436 644.174 364.451 644.174 364.451C643.724 361.748 637.502 360.843 637.31 360.815C636.808 360.502 636.338 360.161 635.951 359.867L635.871 359.803C635.897 359.744 635.92 359.683 635.939 359.621C636.605 356.922 632.922 355.751 632.922 355.751V355.092C635.313 353.869 635.788 345.478 635.788 345.478C635.788 345.478 639.375 335.103 639.877 333.372C640.38 331.642 639.877 329.05 639.877 329.05L640.236 326.811C640.236 326.811 641.005 325.287 641.005 324.981C641.105 324.207 641.404 323.471 641.874 322.846C642.436 322.183 641.261 320.607 641.261 320.607L642.285 317.964V315.062L644.677 304.536C644.677 304.536 647.184 292.275 646.315 288.262C645.446 284.249 647.339 282.209 647.339 282.209C647.169 282.298 646.993 282.378 646.813 282.447C647.052 281.896 647.259 281.331 647.431 280.756L652.812 281.419V281.498H654.753C654.753 281.498 654.139 273.957 654.139 270.916C654.139 267.876 656.208 256.965 656.208 256.965C656.208 256.965 657.129 246.299 656.208 245.994ZM632.32 237.19C632.32 237.488 632.292 237.797 632.272 238.115L632.164 238.277L631.965 238.111L631.722 238.488L631.65 238.524C631.124 238.254 630.853 236.71 630.474 237.043L630.423 237.087C630.339 236.991 630.255 236.964 630.167 237.043L630.088 237.111C630.088 236.995 630.088 236.876 630.088 236.757C630.817 236.944 631.567 237.039 632.32 237.039C632.324 237.091 632.32 237.142 632.32 237.19ZM650.217 272.31H650.333L650.141 272.81C650.165 272.643 650.189 272.48 650.217 272.31ZM630.57 362.32L629.837 362.137L630.235 362.07L630.606 362.312L630.65 362.344L630.57 362.32ZM638.064 361.252C637.821 361.125 637.573 360.978 637.334 360.827C637.414 360.871 637.729 361.034 638.064 361.252Z" fill="url(#paint2_linear)"/>
<path d="M652.864 264.812L648.037 277.339H649.209L644.668 280.943L652.864 281.959V264.812Z" fill="#F86D70"/>
<path opacity="0.1" d="M652.864 264.812L648.037 277.339L646.821 277.013L644.668 280.943L652.864 281.959V264.812Z" fill="black"/>
<path d="M645.294 272.826H652.864L655.642 250.062H645.294V272.826Z" fill="#F86D70"/>
<path opacity="0.1" d="M645.294 272.826H652.864L655.642 250.062H645.294V272.826Z" fill="black"/>
<path d="M630.51 255.452L632.144 255.178L635.899 254.543C635.899 254.543 647.176 252.011 649.503 251.805C650.914 251.619 652.289 251.229 653.585 250.646C654.195 250.384 654.582 250.185 654.582 250.185L650.52 242.798L644.218 238.146C644.218 238.146 640.232 237.301 638.546 234.991C638.17 234.494 637.925 233.911 637.833 233.295C637.742 232.679 637.808 232.05 638.024 231.466C639.052 228.291 631.881 234.503 631.881 234.503C631.881 234.503 631.949 235.991 631.881 237.888C631.881 238.262 631.845 238.651 631.818 239.047C631.818 239.309 631.782 239.571 631.754 239.841C631.578 241.727 631.22 243.668 630.51 244.827C628.776 247.661 630.51 255.452 630.51 255.452Z" fill="#FBBEBE"/>
<path opacity="0.1" d="M631.881 238.047H632.041C632.328 238.047 632.559 237.44 632.838 237.412C635.082 237.198 637.131 236.729 638.554 235.146C638.179 234.649 637.934 234.067 637.843 233.452C637.752 232.837 637.817 232.209 638.032 231.625C639.06 228.45 631.889 234.658 631.889 234.658C631.889 234.658 631.965 236.15 631.881 238.047Z" fill="black"/>
<path d="M623.152 229.045C623.152 230.188 623.377 231.319 623.816 232.375C624.255 233.431 624.899 234.39 625.71 235.198C626.521 236.006 627.485 236.647 628.545 237.084C629.605 237.521 630.742 237.746 631.889 237.746C632.176 237.746 632.459 237.746 632.742 237.706C634.426 237.541 636.025 236.894 637.347 235.842C638.668 234.79 639.654 233.378 640.185 231.779C640.716 230.18 640.77 228.461 640.339 226.832C639.908 225.203 639.012 223.734 637.759 222.602C636.506 221.47 634.95 220.725 633.28 220.457C631.61 220.189 629.897 220.41 628.351 221.092C626.804 221.774 625.489 222.889 624.567 224.301C623.644 225.712 623.152 227.361 623.152 229.045Z" fill="#FBBEBE"/>
<path d="M620.469 215.839C620.182 216.578 620.27 217.403 620.154 218.185C619.728 221.007 616.846 222.698 614.239 223.881C611.632 225.064 608.691 226.465 607.862 229.192C606.953 232.141 608.938 235.098 610.317 237.865C613.004 243.255 613.386 250.13 609.918 255.059C606.837 259.426 601.468 261.497 596.414 263.315C598.846 265.221 601.87 266.223 604.964 266.149C603.804 269.511 599.678 270.627 596.163 271.246C598.008 273.016 600.651 273.659 603.182 274.048C605.028 274.334 606.921 274.52 608.762 274.151C610.604 273.782 612.35 272.786 613.299 271.174C614.096 269.797 614.367 267.92 615.806 267.225C616.455 266.97 617.155 266.869 617.851 266.927L623.83 266.991C625.691 266.991 627.895 266.848 628.856 265.264C629.21 264.588 629.396 263.836 629.398 263.073C629.657 259.168 628.904 255.04 630.518 251.475C631.004 250.4 627.883 248.697 628.21 247.558C629.334 243.64 629.617 240.556 629.605 236.479C629.605 233.324 631.666 230.605 633.368 227.942C635.07 225.278 636.493 221.916 635.15 219.058C633.635 215.871 622.259 211.239 620.469 215.839Z" fill="#3F3D56"/>
<path d="M628.429 361.177L629.952 362.181L630.187 362.336L630.231 362.363L632.037 363.554L636.254 364.261L639.961 364.007C639.961 364.007 641.029 361.784 639.351 361.836C638.814 361.808 638.29 361.657 637.82 361.395L637.589 361.28C637.346 361.153 637.103 361.01 636.864 360.859C636.366 360.546 635.895 360.204 635.517 359.914C634.959 359.486 634.588 359.16 634.588 359.16L628.429 361.177Z" fill="#FBBEBE"/>
<path opacity="0.1" d="M629.972 362.181L630.207 362.336L630.251 362.363L632.057 363.554L636.274 364.261L639.981 364.007C639.981 364.007 641.049 361.784 639.371 361.836C638.834 361.808 638.31 361.657 637.84 361.395C638.135 361.625 638.383 361.875 638.407 362.086C638.474 362.653 635.664 363.673 635.664 363.673L631.702 362.629C631.702 362.629 631.028 362.439 630.108 362.201L630.02 362.177L629.972 362.181Z" fill="black"/>
<path d="M623.196 363.149C623.196 363.149 626.444 363.856 628.629 363.653C630.813 363.451 634.576 365.325 634.576 365.325C634.576 365.325 635.847 365.92 639.758 366.174C643.668 366.428 643.668 364.451 643.668 364.451C643.222 361.764 637.043 360.879 636.852 360.839C636.928 360.879 637.25 361.042 637.577 361.26C638.016 361.546 638.49 361.919 638.526 362.221C638.594 362.784 635.784 363.808 635.784 363.808L631.822 362.768C631.822 362.768 631.148 362.574 630.227 362.336H630.139C628.774 361.965 627.387 361.68 625.986 361.482C624.28 361.3 623.407 362.745 623.228 363.07C623.215 363.095 623.204 363.122 623.196 363.149Z" fill="#3F3D56"/>
<path d="M571.992 291.771L573.717 293.089C573.717 293.089 574.22 293.065 574.969 293.041H575.208C576.28 293.001 577.759 292.962 579.015 292.962C579.827 292.925 580.64 292.97 581.442 293.096C582.303 293.398 583.834 288.19 583.834 288.19L582.104 287.794L581.53 287.659L581.131 287.563L579.724 287.234L575.459 287.718L572.462 289.639L571.992 291.771Z" fill="#FBBEBE"/>
<path opacity="0.1" d="M571.992 291.771L573.717 293.089C573.717 293.089 574.22 293.065 574.969 293.041C574.625 292.909 574.342 292.656 574.172 292.33C573.056 289.246 578.592 287.929 578.592 287.929L581.171 287.817L581.674 287.794H582.072L581.498 287.659L581.1 287.563L579.692 287.234L575.427 287.718L572.43 289.639L571.992 291.771Z" fill="black"/>
<path d="M568.587 293.164C569.632 294.124 576.472 293.164 576.759 293.14C576.24 293.198 575.714 293.162 575.208 293.033C574.958 292.988 574.72 292.888 574.513 292.741C574.306 292.593 574.135 292.401 574.012 292.18C572.896 289.092 578.433 287.778 578.433 287.778L581.012 287.667L581.51 287.643L587.78 287.373L588.083 285.654C588.083 285.654 586.046 285.845 582.849 286.099C581.052 286.246 578.863 286.408 576.5 286.563C569.895 287 568.324 291.267 568.324 291.267C568.324 291.267 567.523 292.18 568.587 293.164Z" fill="#3F3D56"/>
<path d="M645.298 218.661C645.341 218.756 645.391 218.846 645.45 218.931L646.972 221.154L650.934 221.551L650.978 219.987L651.644 196.458C651.644 196.458 654.386 180.676 649.204 181.585C644.023 182.494 647.275 196.458 647.275 196.458C647.275 196.458 646.685 203.539 646.271 205.666C645.868 207.722 644.063 216.081 645.298 218.661Z" fill="#FBBEBE"/>
<path d="M636.406 277.104L637.534 279.026L640.057 283.324C640.057 283.324 644.633 284.995 645.805 283.721C646.446 283.027 647.14 280.601 647.626 278.561C648.025 276.91 648.292 275.517 648.292 275.517L636.406 277.104Z" fill="#FBBEBE"/>
<path opacity="0.1" d="M636.406 277.104L637.534 279.026C637.604 278.965 637.668 278.897 637.725 278.823C639 277.204 644.617 278.478 647.626 278.581C648.025 276.93 648.292 275.537 648.292 275.537L636.406 277.104Z" fill="black"/>
<path opacity="0.1" d="M579.015 292.954C579.827 292.917 580.64 292.962 581.442 293.089C582.303 293.39 583.834 288.183 583.834 288.183L581.53 287.643L587.8 287.373L588.103 285.654C588.103 285.654 586.066 285.845 582.869 286.099C582.209 286.478 581.619 286.968 581.127 287.547L581.032 287.667C579.697 289.298 579.202 291.402 579.015 292.954Z" fill="black"/>
<path opacity="0.1" d="M628.429 361.177L630.187 362.336C632.81 361.863 635.206 361.121 635.489 359.954C635.49 359.936 635.49 359.917 635.489 359.899C634.931 359.47 634.56 359.144 634.56 359.144L628.429 361.177Z" fill="black"/>
<path opacity="0.1" d="M623.232 363.082C625.548 362.967 627.855 362.721 630.143 362.344C628.777 361.97 627.388 361.683 625.986 361.482C624.284 361.3 623.411 362.745 623.232 363.082Z" fill="black"/>
<path d="M579.206 294.958C579.206 296.224 582.71 297.034 582.71 297.034L593.38 306.493C593.38 306.493 600.085 309.477 604.35 313.776C608.615 318.075 612.378 314.383 612.378 314.383C616.898 313.272 629.916 297.59 629.916 297.59C629.916 297.59 630.219 315.499 630.829 316.813C631.439 318.126 630.626 321.719 630.271 323.239C630.047 324.507 629.962 325.795 630.016 327.081C630.016 327.081 625.141 345.645 625.548 347.264C625.954 348.884 622.905 356.473 622.905 356.473V362.796C622.905 362.796 634.843 362.34 635.501 359.66C636.158 356.981 632.507 355.814 632.507 355.814V355.155C634.899 353.941 635.349 345.597 635.349 345.597C635.349 345.597 638.909 335.277 639.415 333.559C639.921 331.84 639.415 329.256 639.415 329.256L639.77 327.033C639.77 327.033 640.531 325.513 640.531 325.211C640.631 324.441 640.928 323.71 641.396 323.088C641.954 322.429 640.786 320.861 640.786 320.861L641.803 318.23V315.348L644.194 304.877C644.194 304.877 646.685 292.684 645.82 288.687C644.955 284.69 646.837 282.669 646.837 282.669C642.759 284.797 640.702 280.062 640.029 278.025C639.857 277.501 639.774 277.152 639.774 277.152C639.774 277.152 634.173 275.096 628.96 275.588C627.901 275.674 626.857 275.894 625.855 276.243C620.063 278.319 619.15 286.916 619.15 286.916L614.02 294.708C611.377 301.638 607.415 302.345 607.415 302.345C607.415 302.345 598.12 296.125 597.849 295.819C597.578 295.514 594.038 293.997 594.038 293.997C593.62 293.264 592.979 292.681 592.209 292.33C590.989 291.822 590.889 289.949 590.889 289.949C590.738 285.547 588.147 285.186 588.147 285.186C579.154 284.44 579.206 293.696 579.206 294.958Z" fill="#3F3D56"/>
<path d="M630.921 270.226H636.405V253.281H630.921V270.226Z" fill="#F86D70"/>
<path opacity="0.1" d="M630.921 270.226H636.405V253.281H630.921V270.226Z" fill="black"/>
<path opacity="0.1" d="M645.294 218.626C645.293 218.638 645.293 218.65 645.294 218.662C645.337 218.756 645.387 218.846 645.446 218.931L646.968 221.154L650.93 221.551L650.974 219.987C649.739 219.892 646.924 219.555 645.294 218.626Z" fill="black"/>
<path d="M645.45 218.931C645.45 218.931 645.653 227.83 643.417 229.045C641.181 230.26 640.312 236.587 640.312 236.587C640.312 236.587 647.088 241.024 648.599 242.977C650.109 244.93 653.577 249.582 652.864 250.693C652.15 251.805 654.594 256.865 654.594 256.865C654.594 256.865 650.121 265.971 651.138 269.412C652.154 272.853 652.254 281.955 652.254 281.955H654.187C654.187 281.955 653.577 274.469 653.577 271.432C653.577 268.396 655.606 257.572 655.606 257.572C655.606 257.572 656.523 246.95 655.606 246.649C654.689 246.347 649.308 242.096 648.902 240.171C648.495 238.246 651.748 220.325 651.748 220.325C651.748 220.325 647.582 220.146 645.45 218.931Z" fill="#DD2052"/>
<path opacity="0.1" d="M630.817 251.709C631.003 252.948 631.455 254.131 632.144 255.178L635.899 254.543C635.899 254.543 647.176 252.011 649.503 251.805C650.914 251.619 652.289 251.229 653.585 250.646C652.692 247.493 650.948 244.644 648.543 242.409L647.112 241.088C645.003 239.138 642.559 237.583 639.897 236.495C640.065 236.634 651.895 246.692 649.304 248.665C646.713 250.638 639.738 245.835 639.738 245.835L631.806 239.048L631.519 238.801L631.06 239.512C631.293 239.607 631.521 239.716 631.742 239.837C634.445 241.315 636.451 243.798 637.322 246.744C638.953 252.202 630.817 251.709 630.817 251.709Z" fill="black"/>
<path d="M628.378 277.001C628.378 277.001 635.895 281.149 637.721 278.823C638.119 278.311 638.96 278.089 640.009 278.029C639.837 277.505 639.754 277.156 639.754 277.156C639.754 277.156 634.153 275.1 628.94 275.592C628.597 276.45 628.378 277.001 628.378 277.001Z" fill="#444053"/>
<path d="M631.837 238.809L640.057 245.851C640.057 245.851 647.004 250.669 649.623 248.681C652.242 246.692 640.212 236.507 640.212 236.507C642.869 237.598 645.31 239.149 647.423 241.088L648.854 242.409C652.617 245.883 653.466 245.883 653.593 250.987C653.625 252.245 653.194 254.051 652.864 254.377C651.644 255.567 650.791 264.216 650.978 265.229C651.166 266.241 648.706 274.977 649.503 277.406C650.301 279.835 639.538 276.192 637.717 278.521C635.895 280.851 628.378 276.7 628.378 276.7C628.378 276.7 632.543 266.074 633.559 265.367C634.576 264.661 635.796 259.195 633.559 256.667C631.323 254.139 631.124 251.709 631.124 251.709C631.124 251.709 639.255 252.209 637.625 246.752C637.166 245.17 636.371 243.705 635.292 242.457C634.214 241.209 632.878 240.207 631.375 239.52L631.837 238.809Z" fill="#E8E8F0"/>
<path opacity="0.1" d="M642.807 256.718C642.807 256.718 639.654 262.637 635.576 264.173C635.445 264.22 635.317 264.264 635.178 264.304C630.921 265.594 643.126 258.552 642.807 256.718Z" fill="black"/>
<path d="M598.714 204.36C598.714 204.36 600.236 208.207 601.456 209.52C602.676 210.834 611.716 223.988 611.716 223.988L612.481 225.576L613.139 226.929L618.931 226.322L619.329 223.996L619.106 223.726C618.524 223.032 616.938 221.166 615.873 220.352C614.554 219.344 611.911 216.006 611.911 216.006C611.911 216.006 603.684 207.504 603.074 205.178C602.465 202.852 594.233 188.904 592.408 191.318C590.582 193.731 598.714 204.36 598.714 204.36Z" fill="#FBBEBE"/>
<g opacity="0.1">
<path opacity="0.1" d="M615.519 266.927C614.824 266.867 614.124 266.968 613.474 267.221C612.039 267.916 611.768 269.793 610.971 271.17C610.038 272.782 608.26 273.778 606.431 274.147C606.067 274.218 605.7 274.268 605.331 274.298C606.496 274.411 607.671 274.36 608.822 274.147C610.652 273.778 612.43 272.782 613.362 271.17C614.16 269.793 614.431 267.916 615.866 267.221C616.242 267.052 616.648 266.958 617.061 266.943L615.519 266.927Z" fill="black"/>
<path opacity="0.1" d="M629.677 236.479C629.677 233.324 631.738 230.605 633.436 227.942C635.134 225.278 636.561 221.916 635.218 219.058C634.07 216.617 627.15 213.343 623.156 213.99C627.066 214.494 631.885 217.058 632.826 219.058C634.169 221.916 632.742 225.278 631.044 227.942C629.346 230.605 627.278 233.324 627.286 236.479C627.286 240.552 627.011 243.624 625.886 247.558C625.564 248.689 628.677 250.4 628.198 251.471C626.58 255.043 627.337 259.164 627.078 263.069C627.073 263.832 626.886 264.583 626.532 265.26C625.735 266.566 624.101 266.904 622.51 266.975H623.901C625.759 266.975 627.963 266.832 628.924 265.248C629.277 264.571 629.464 263.82 629.47 263.057C629.729 259.152 628.972 255.028 630.59 251.459C631.076 250.388 627.955 248.681 628.278 247.546C629.402 243.64 629.685 240.552 629.677 236.479Z" fill="black"/>
</g>
<path opacity="0.1" d="M612.481 225.568L613.139 226.922L618.931 226.314L619.329 223.988L619.106 223.718C618.488 224.02 613.861 226.239 612.481 225.568Z" fill="black"/>
<path opacity="0.1" d="M633.866 240.782C633.866 240.782 632.443 238.559 631.63 239.163C630.817 239.766 630.502 237.341 630.036 237.746C629.569 238.15 628.21 239.278 627.644 237.702C627.202 236.448 622.387 228.513 620.433 225.322C619.931 224.496 619.616 223.988 619.616 223.988C619.616 223.988 614.132 226.719 612.812 225.81V227.731L613.928 227.834L619.907 238.948C619.907 238.948 621.789 241.929 621.661 242.969C621.534 244.009 624.073 248.562 624.479 248.863C624.886 249.165 629.262 254.226 629.262 254.226C629.262 254.226 631.499 265.153 629.565 268.19C627.632 271.226 624.284 273.449 624.284 273.449C624.284 273.449 623.276 276.382 623.423 276.688C623.57 276.993 622.251 278.307 622.861 278.712C623.471 279.117 624.284 281.947 624.284 281.947C624.284 281.947 627.13 277.394 628.669 276.688C630.207 275.981 632.176 266.669 632.176 266.669C632.176 266.669 632.738 261.184 632.782 257.643C632.826 254.103 632.647 240.782 633.866 240.782Z" fill="black"/>
<path d="M633.559 240.782C633.559 240.782 632.14 238.559 631.327 239.163C630.514 239.766 630.195 237.341 629.733 237.746C629.27 238.15 627.911 239.278 627.341 237.702C626.895 236.448 622.08 228.513 620.131 225.322L619.313 223.988C619.313 223.988 613.829 226.719 612.505 225.81V227.731L613.625 227.834L619.604 238.948C619.604 238.948 621.49 241.929 621.358 242.969C621.227 244.009 623.75 248.562 624.176 248.863C624.603 249.165 628.96 254.226 628.96 254.226C628.96 254.226 631.196 265.153 629.267 268.19C628.247 269.715 627.008 271.082 625.587 272.246C624.394 273.226 623.555 274.567 623.196 276.065C623.127 276.269 623.102 276.485 623.124 276.7C623.272 277.001 621.952 278.319 622.562 278.724C623.172 279.129 623.993 281.971 623.993 281.971C623.993 281.971 626.839 277.418 628.378 276.712C629.916 276.005 631.889 266.693 631.889 266.693C631.889 266.693 632.447 261.208 632.495 257.667C632.543 254.127 632.364 240.782 633.559 240.782Z" fill="#DD2052"/>
<path opacity="0.1" d="M619.64 286.817C619.64 286.817 623.909 287.611 625.619 288.838C627.329 290.064 619.118 286.916 619.118 286.916L619.64 286.817Z" fill="black"/>
<path opacity="0.1" d="M629.904 297.59C629.904 297.59 634.357 301.285 633.559 304.623C632.762 307.961 630.705 316.36 630.705 316.36L629.904 297.59Z" fill="black"/>
<path opacity="0.1" d="M590.965 290.485C590.965 290.485 584.691 291.167 585.097 291.977C585.504 292.787 590.965 291.231 590.965 291.231V290.485Z" fill="black"/>
<path opacity="0.1" d="M639.14 321.214C639.14 321.214 639.538 321.719 637.211 321.214C634.883 320.71 636.601 319.154 636.601 319.154L639.14 321.214Z" fill="black"/>
<path opacity="0.1" d="M638.343 328.196C638.343 328.196 635.154 328.7 633.444 328.196C631.734 327.692 638.343 328.196 638.343 328.196Z" fill="black"/>
<path opacity="0.1" d="M631.782 355.513C631.782 355.513 631.224 354.905 628.43 356.017C625.635 357.128 624.519 357.18 623.706 356.81C622.893 356.441 631.782 355.513 631.782 355.513Z" fill="black"/>
<path opacity="0.1" d="M634.883 289.623L630.921 295.113C630.921 295.113 633.053 290.306 634.883 289.623Z" fill="black"/>
<path opacity="0.1" d="M627.182 239.163C627.182 239.163 627.01 240.985 624.455 241.695C621.9 242.405 621.414 242.981 621.414 242.981" fill="black"/>
<path opacity="0.1" d="M620.541 225.957C620.541 225.957 617.169 228.339 613.649 227.834L620.541 225.957Z" fill="black"/>
<path opacity="0.1" d="M623.108 276.95C623.108 276.95 624.093 277.565 626.456 274.874L623.108 276.95Z" fill="black"/>
<path opacity="0.1" d="M647.658 248.415C647.754 247.923 647.411 247.466 647.088 247.081L646.426 246.287C646.297 246.125 646.151 245.976 645.992 245.843C645.593 245.537 645.083 245.446 644.668 245.172" fill="black"/>
<path opacity="0.1" d="M861.675 110.044C861.675 110.044 828.117 108.027 832.063 131.446C832.063 131.446 831.266 135.586 835.044 137.463C835.044 137.463 835.104 135.729 838.488 136.32C839.693 136.519 840.917 136.577 842.136 136.495C843.782 136.381 845.346 135.738 846.592 134.661C846.592 134.661 856.027 130.779 859.694 115.426C859.694 115.426 862.408 112.076 862.301 111.215L856.637 113.624C856.637 113.624 858.574 117.692 857.035 121.074C857.035 121.074 856.852 113.771 855.764 113.93C855.545 113.965 852.822 115.339 852.822 115.339C852.822 115.339 856.15 122.424 853.639 127.576C853.639 127.576 854.592 118.843 851.782 115.851L847.796 118.169C847.796 118.169 851.686 125.488 849.047 131.462C849.047 131.462 849.725 122.301 846.955 118.732L843.343 121.539C843.343 121.539 846.999 128.755 844.77 133.708C844.77 133.708 844.479 123.043 842.562 122.237C842.562 122.237 839.401 125.016 838.919 126.151C838.919 126.151 841.422 131.39 839.868 134.153C839.868 134.153 838.915 127.048 838.134 127.008C838.134 127.008 834.985 131.716 834.658 134.947C834.658 134.947 834.793 130.148 837.372 126.564C837.372 126.564 834.327 127.084 832.549 129.048C832.549 129.048 833.039 125.722 838.15 125.432C838.15 125.432 840.752 121.86 841.446 121.642C841.446 121.642 836.368 121.221 833.287 122.578C833.287 122.578 835.997 119.439 842.379 120.868L845.946 117.966C845.946 117.966 839.258 117.057 836.42 118.062C836.42 118.062 839.684 115.283 846.907 117.307L850.789 114.997C850.789 114.997 845.085 113.775 841.689 114.203C841.689 114.203 845.277 112.278 851.929 114.366L854.719 113.124C854.719 113.124 850.542 112.306 849.318 112.175C848.095 112.044 848.031 111.711 848.031 111.711C850.677 111.271 853.394 111.572 855.879 112.58C855.879 112.58 861.779 110.413 861.675 110.044Z" fill="#DD2052"/>
<path opacity="0.1" d="M820.284 116.001C820.284 116.001 805.137 115.089 806.911 125.671C806.911 125.671 806.556 127.544 808.254 128.393C808.254 128.393 808.282 127.6 809.813 127.873C810.357 127.965 810.909 127.991 811.459 127.953C812.203 127.902 812.91 127.611 813.472 127.123C813.472 127.123 817.737 125.373 819.395 118.435C819.395 118.435 820.619 116.918 820.571 116.529L818.012 117.617C818.012 117.617 818.889 119.459 818.2 120.987C818.2 120.987 818.116 117.684 817.626 117.764C817.526 117.764 816.294 118.399 816.294 118.399C816.294 118.399 817.801 121.602 816.665 123.932C816.665 123.932 817.096 119.987 815.824 118.633L814.022 119.681C814.022 119.681 815.784 122.987 814.588 125.686C814.588 125.686 814.895 121.546 813.644 119.935L812.013 121.217C812.013 121.217 813.664 124.48 812.659 126.714C812.659 126.714 812.528 121.896 811.659 121.535C811.659 121.535 810.232 122.789 810.012 123.305C810.012 123.305 811.144 125.686 810.443 126.917C810.443 126.917 810.012 123.706 809.646 123.694C809.646 123.694 808.227 125.821 808.075 127.266C808.146 125.918 808.569 124.611 809.303 123.476C808.482 123.63 807.724 124.021 807.122 124.599C807.122 124.599 807.346 123.098 809.654 122.964C809.654 122.964 810.849 121.352 811.144 121.253C811.144 121.253 808.848 121.062 807.457 121.677C807.457 121.677 808.681 120.257 811.567 120.884L813.161 119.574C813.161 119.574 810.14 119.177 808.856 119.617C808.856 119.617 810.331 118.363 813.596 119.276L815.35 118.232C815.35 118.232 812.775 117.677 811.236 117.879C811.236 117.879 812.858 117.006 815.864 117.95L817.119 117.391C817.119 117.391 815.23 117.018 814.676 116.962C814.122 116.906 814.094 116.752 814.094 116.752C815.291 116.553 816.519 116.691 817.642 117.149C817.642 117.149 820.332 116.168 820.284 116.001Z" fill="#DD2052"/>
<path d="M873.195 368.301C882.046 368.301 889.222 367.093 889.222 365.602C889.222 364.112 882.046 362.903 873.195 362.903C864.343 362.903 857.167 364.112 857.167 365.602C857.167 367.093 864.343 368.301 873.195 368.301Z" fill="white"/>
<path d="M879.823 361.189C880.555 360.595 881.088 359.793 881.35 358.89C881.549 357.981 881.159 356.906 880.282 356.552C879.301 356.179 878.253 356.858 877.46 357.541C876.666 358.224 875.754 359.005 874.717 358.859C875.251 358.375 875.651 357.763 875.877 357.081C876.103 356.399 876.149 355.67 876.009 354.965C875.963 354.673 875.839 354.398 875.65 354.171C875.104 353.591 874.119 353.838 873.466 354.294C871.393 355.747 870.815 358.553 870.803 361.073C870.596 360.164 870.771 359.216 870.767 358.295C870.763 357.374 870.504 356.31 869.711 355.822C869.222 355.56 868.672 355.431 868.116 355.449C867.188 355.413 866.147 355.509 865.514 356.187C864.716 357.029 864.928 358.442 865.613 359.363C866.299 360.284 867.347 360.875 868.312 361.514C869.083 361.972 869.741 362.598 870.237 363.344C870.297 363.448 870.345 363.559 870.38 363.673H876.224C877.531 363.011 878.742 362.175 879.823 361.189Z" fill="white"/>
</g>
<defs>
<linearGradient id="paint0_linear" x1="538.5" y1="-6" x2="538.5" y2="908.5" gradientUnits="userSpaceOnUse">
<stop stop-color="#2082DD"/>
<stop offset="1" stop-color="#1864AA"/>
</linearGradient>
<linearGradient id="paint1_linear" x1="830.273" y1="310.418" x2="830.273" y2="150.736" gradientUnits="userSpaceOnUse">
<stop stop-color="#808080" stop-opacity="0.25"/>
<stop offset="0.54" stop-color="#808080" stop-opacity="0.12"/>
<stop offset="1" stop-color="#808080" stop-opacity="0.1"/>
</linearGradient>
<linearGradient id="paint2_linear" x1="16392.8" y1="99572.8" x2="36080.4" y2="99572.8" gradientUnits="userSpaceOnUse">
<stop stop-color="#808080" stop-opacity="0.25"/>
<stop offset="0.54" stop-color="#808080" stop-opacity="0.12"/>
<stop offset="1" stop-color="#808080" stop-opacity="0.1"/>
</linearGradient>
<clipPath id="clip0">
<rect width="456" height="259" fill="white" transform="translate(508 110)"/>
</clipPath>
</defs>
</svg>
