<svg width="200" height="153" viewBox="0 0 200 153" fill="none" xmlns="http://www.w3.org/2000/svg">
<g clip-path="url(#clip0)">
<path opacity="0.1" d="M34.1375 22.4976C33.0673 23.7938 32.6553 25.6162 32.1944 27.3294C28.4837 41.1368 19.34 52.2427 8.92687 60.1755C4.5171 63.5358 -0.851573 68.0421 0.113186 74.0667C0.632672 77.3022 2.91177 79.684 4.60498 82.3192C8.1574 87.8371 9.30964 95.3372 7.61643 101.943C5.69082 109.458 0.308481 116.471 1.97435 124.071C3.0016 128.749 6.48958 132.078 9.8428 134.939C15.0741 139.4 20.4721 143.579 26.0367 147.475C29.7668 150.087 33.7352 152.629 38.0825 152.96C41.9103 153.253 45.66 151.801 49.2944 150.368C52.4699 149.115 55.7255 147.811 58.2897 145.3C59.9634 143.661 61.2973 141.546 63.1565 140.205C67.5233 137.056 73.1322 139.051 78.1395 140.4C89.9549 143.566 102.6 142.41 113.843 137.137C131.09 129.049 144.235 112.062 161.105 102.948C168.358 99.0288 176.248 96.5963 182.964 91.5482C186.748 88.6739 190 85.1621 192.573 81.1712C197.651 73.3534 200.396 63.3857 199.603 53.6285C198.811 43.8714 194.368 34.4689 187.39 28.9608C179.92 23.0648 170.485 21.9636 161.986 18.424C153.213 14.7636 145.405 8.47582 136.716 4.5562C129.681 1.3896 122.025 -0.164558 114.309 0.00779075C106.594 0.180139 99.0147 2.07462 92.1285 5.55218C82.6665 10.3275 73.0794 21.4685 62.5413 22.3144C55.0341 22.8991 40.0003 15.399 34.1375 22.4976Z" fill="#DD2052"/>
<path d="M169.542 67.6492C169.542 67.6492 166.698 58.0109 170.075 50.9182C171.511 47.9518 171.944 44.6005 171.309 41.3676C170.996 39.8351 170.542 38.3345 169.954 36.8847" stroke="#535461" stroke-width="2" stroke-miterlimit="10"/>
<path d="M172.065 32.4037C172.065 33.5848 169.917 37.0094 169.917 37.0094C169.917 37.0094 167.768 33.5848 167.768 32.4037C167.747 32.1096 167.786 31.8142 167.884 31.5359C167.981 31.2576 168.136 31.0025 168.337 30.7864C168.538 30.5703 168.781 30.398 169.052 30.2801C169.323 30.1623 169.615 30.1014 169.911 30.1014C170.206 30.1014 170.499 30.1623 170.769 30.2801C171.04 30.398 171.284 30.5703 171.485 30.7864C171.686 31.0025 171.84 31.2576 171.938 31.5359C172.036 31.8142 172.075 32.1096 172.053 32.4037H172.065Z" fill="#DD2052"/>
<path d="M175.598 38.9449C174.955 39.937 171.284 41.6502 171.284 41.6502C171.284 41.6502 171.35 37.6136 171.993 36.6215C172.32 36.1879 172.799 35.8941 173.334 35.7993C173.87 35.7045 174.421 35.8158 174.877 36.1108C175.334 36.4058 175.661 36.8624 175.793 37.3887C175.926 37.915 175.853 38.4718 175.59 38.9468L175.598 38.9449Z" fill="#DD2052"/>
<path d="M175.444 50.1268C174.387 50.6589 170.366 50.2905 170.366 50.2905C170.366 50.2905 172.465 46.8387 173.522 46.3066C174.023 46.099 174.584 46.0883 175.092 46.2765C175.601 46.4647 176.019 46.8379 176.264 47.3213C176.508 47.8046 176.56 48.3623 176.409 48.8823C176.259 49.4023 175.916 49.8462 175.451 50.1249L175.444 50.1268Z" fill="#DD2052"/>
<path d="M173.418 58.5684C172.467 59.27 168.432 59.5877 168.432 59.5877C168.432 59.5877 169.917 55.8318 170.87 55.1282C171.328 54.8501 171.875 54.7533 172.401 54.857C172.928 54.9607 173.396 55.2573 173.715 55.6885C174.033 56.1197 174.178 56.6542 174.122 57.1868C174.065 57.7194 173.811 58.2116 173.409 58.5664L173.418 58.5684Z" fill="#DD2052"/>
<path d="M166.792 41.8783C167.642 42.7008 171.596 43.5545 171.596 43.5545C171.596 43.5545 170.62 39.6348 169.778 38.8104C169.582 38.5906 169.342 38.4137 169.074 38.2904C168.806 38.1672 168.516 38.1004 168.221 38.0941C167.926 38.0879 167.633 38.1423 167.36 38.2541C167.087 38.3658 166.84 38.5325 166.634 38.7437C166.429 38.9549 166.269 39.2062 166.165 39.4817C166.061 39.7572 166.015 40.0512 166.029 40.3453C166.044 40.6394 166.12 40.9273 166.251 41.191C166.382 41.4548 166.566 41.6887 166.792 41.8783Z" fill="#DD2052"/>
<path d="M164.548 51.7718C165.605 52.304 169.626 51.9356 169.626 51.9356C169.626 51.9356 167.526 48.4837 166.47 47.9516C165.969 47.7441 165.408 47.7333 164.899 47.9215C164.391 48.1097 163.972 48.483 163.728 48.9663C163.484 49.4496 163.432 50.0073 163.582 50.5273C163.733 51.0473 164.075 51.4912 164.54 51.7699L164.548 51.7718Z" fill="#DD2052"/>
<path d="M163.689 61.6869C164.64 62.3886 168.675 62.7063 168.675 62.7063C168.675 62.7063 167.19 58.9504 166.237 58.2467C166.014 58.0495 165.752 57.9009 165.468 57.8104C165.184 57.7198 164.884 57.6892 164.587 57.7207C164.291 57.7521 164.004 57.8448 163.745 57.9928C163.487 58.1409 163.262 58.3411 163.085 58.5807C162.908 58.8203 162.783 59.0941 162.718 59.3845C162.653 59.675 162.649 59.9758 162.706 60.2678C162.764 60.5598 162.882 60.8366 163.053 61.0806C163.224 61.3245 163.444 61.5304 163.699 61.6849L163.689 61.6869Z" fill="#DD2052"/>
<path opacity="0.1" d="M172.065 32.4037C172.065 33.5848 169.917 37.0094 169.917 37.0094C169.917 37.0094 167.768 33.5848 167.768 32.4037C167.747 32.1096 167.786 31.8142 167.884 31.5359C167.981 31.2576 168.136 31.0025 168.337 30.7864C168.538 30.5703 168.781 30.398 169.052 30.2801C169.323 30.1623 169.615 30.1014 169.911 30.1014C170.206 30.1014 170.499 30.1623 170.769 30.2801C171.04 30.398 171.284 30.5703 171.485 30.7864C171.686 31.0025 171.84 31.2576 171.938 31.5359C172.036 31.8142 172.075 32.1096 172.053 32.4037H172.065Z" fill="#DD2052"/>
<path opacity="0.1" d="M175.598 38.9449C174.955 39.937 171.284 41.6502 171.284 41.6502C171.284 41.6502 171.35 37.6136 171.993 36.6215C172.32 36.1879 172.799 35.8941 173.334 35.7993C173.87 35.7045 174.421 35.8158 174.877 36.1108C175.334 36.4058 175.661 36.8624 175.793 37.3887C175.926 37.915 175.853 38.4718 175.59 38.9468L175.598 38.9449Z" fill="#DD2052"/>
<path opacity="0.1" d="M175.444 50.1268C174.387 50.6589 170.366 50.2905 170.366 50.2905C170.366 50.2905 172.465 46.8387 173.522 46.3066C174.023 46.099 174.584 46.0883 175.092 46.2765C175.601 46.4647 176.019 46.8379 176.264 47.3213C176.508 47.8046 176.56 48.3623 176.409 48.8823C176.259 49.4023 175.916 49.8462 175.451 50.1249L175.444 50.1268Z" fill="#DD2052"/>
<path opacity="0.1" d="M173.418 58.5684C172.467 59.27 168.432 59.5877 168.432 59.5877C168.432 59.5877 169.917 55.8318 170.87 55.1282C171.328 54.8501 171.875 54.7533 172.401 54.857C172.928 54.9607 173.396 55.2573 173.715 55.6885C174.033 56.1197 174.178 56.6542 174.122 57.1868C174.065 57.7194 173.811 58.2116 173.409 58.5664L173.418 58.5684Z" fill="#DD2052"/>
<path opacity="0.1" d="M166.792 41.8783C167.642 42.7008 171.596 43.5545 171.596 43.5545C171.596 43.5545 170.62 39.6348 169.778 38.8104C169.582 38.5906 169.342 38.4137 169.074 38.2904C168.806 38.1672 168.516 38.1004 168.221 38.0941C167.926 38.0879 167.633 38.1423 167.36 38.2541C167.087 38.3658 166.84 38.5325 166.634 38.7437C166.429 38.9549 166.269 39.2062 166.165 39.4817C166.061 39.7572 166.015 40.0512 166.029 40.3453C166.044 40.6394 166.12 40.9273 166.251 41.191C166.382 41.4548 166.566 41.6887 166.792 41.8783Z" fill="#DD2052"/>
<path opacity="0.1" d="M164.548 51.7718C165.605 52.304 169.626 51.9356 169.626 51.9356C169.626 51.9356 167.526 48.4837 166.47 47.9516C165.969 47.7441 165.408 47.7333 164.899 47.9215C164.391 48.1097 163.972 48.483 163.728 48.9663C163.484 49.4496 163.432 50.0073 163.582 50.5273C163.733 51.0473 164.075 51.4912 164.54 51.7699L164.548 51.7718Z" fill="#DD2052"/>
<path opacity="0.1" d="M163.689 61.6869C164.64 62.3886 168.675 62.7063 168.675 62.7063C168.675 62.7063 167.19 58.9504 166.237 58.2467C166.014 58.0495 165.752 57.9009 165.468 57.8104C165.184 57.7198 164.884 57.6892 164.587 57.7207C164.291 57.7521 164.004 57.8448 163.745 57.9928C163.487 58.1409 163.262 58.3411 163.085 58.5807C162.908 58.8203 162.783 59.0941 162.718 59.3845C162.653 59.675 162.649 59.9758 162.706 60.2678C162.764 60.5598 162.882 60.8366 163.053 61.0806C163.224 61.3245 163.444 61.5304 163.699 61.6849L163.689 61.6869Z" fill="#DD2052"/>
<path d="M181.455 83.047C181.455 83.047 178.611 73.4087 181.988 66.316C183.424 63.3496 183.857 59.9984 183.222 56.7654C182.909 55.2329 182.455 53.7323 181.867 52.2825" stroke="#535461" stroke-width="2" stroke-miterlimit="10"/>
<path d="M183.978 47.8015C183.978 48.9827 181.83 52.4072 181.83 52.4072C181.83 52.4072 179.682 48.9827 179.682 47.8015C179.66 47.5074 179.699 47.212 179.797 46.9337C179.894 46.6555 180.049 46.4003 180.25 46.1842C180.451 45.9682 180.694 45.7958 180.965 45.678C181.236 45.5601 181.528 45.4993 181.824 45.4993C182.119 45.4993 182.412 45.5601 182.682 45.678C182.953 45.7958 183.197 45.9682 183.398 46.1842C183.599 46.4003 183.753 46.6555 183.851 46.9337C183.949 47.212 183.988 47.5074 183.966 47.8015H183.978Z" fill="#DD2052"/>
<path d="M187.511 54.3427C186.868 55.3348 183.205 57.0461 183.205 57.0461C183.205 57.0461 183.271 53.0095 183.914 52.0174C184.056 51.7599 184.25 51.5344 184.484 51.3549C184.717 51.1755 184.985 51.0459 185.271 50.9743C185.557 50.9027 185.855 50.8907 186.146 50.9389C186.437 50.987 186.714 51.0944 186.962 51.2544C187.209 51.4143 187.421 51.6234 187.584 51.8685C187.747 52.1137 187.858 52.3897 187.909 52.6794C187.961 52.9691 187.952 53.2663 187.883 53.5524C187.815 53.8386 187.688 54.1076 187.511 54.3427Z" fill="#DD2052"/>
<path d="M187.357 65.5246C186.3 66.0567 182.279 65.6884 182.279 65.6884C182.279 65.6884 184.378 62.2365 185.435 61.7044C185.688 61.5527 185.97 61.4547 186.263 61.4165C186.556 61.3784 186.854 61.401 187.137 61.4829C187.421 61.5648 187.685 61.7043 187.912 61.8925C188.14 62.0808 188.326 62.3138 188.459 62.5771C188.592 62.8403 188.669 63.1282 188.686 63.4225C188.702 63.7169 188.658 64.0115 188.555 64.288C188.452 64.5644 188.294 64.8167 188.089 65.0292C187.884 65.2416 187.637 65.4096 187.364 65.5227L187.357 65.5246Z" fill="#DD2052"/>
<path d="M185.331 73.9662C184.38 74.6678 180.345 74.9855 180.345 74.9855C180.345 74.9855 181.83 71.2296 182.783 70.526C183.241 70.2479 183.788 70.1511 184.314 70.2548C184.841 70.3585 185.309 70.6551 185.628 71.0863C185.946 71.5175 186.091 72.052 186.035 72.5846C185.978 73.1172 185.724 73.6094 185.322 73.9642L185.331 73.9662Z" fill="#DD2052"/>
<path d="M178.705 57.2761C179.555 58.0986 183.509 58.9523 183.509 58.9523C183.509 58.9523 182.533 55.0327 181.691 54.2082C181.275 53.8592 180.743 53.6803 180.2 53.7075C179.658 53.7348 179.146 53.9661 178.767 54.3549C178.389 54.7438 178.172 55.2613 178.16 55.8033C178.149 56.3453 178.343 56.8716 178.705 57.2761Z" fill="#DD2052"/>
<path d="M176.461 67.1697C177.518 67.7018 181.539 67.3334 181.539 67.3334C181.539 67.3334 179.439 63.8816 178.383 63.3495C177.882 63.1419 177.321 63.1312 176.812 63.3194C176.304 63.5076 175.885 63.8808 175.641 64.3642C175.397 64.8475 175.345 65.4052 175.495 65.9252C175.646 66.4452 175.988 66.8891 176.453 67.1678L176.461 67.1697Z" fill="#DD2052"/>
<path d="M175.602 77.0847C176.553 77.7864 180.588 78.1041 180.588 78.1041C180.588 78.1041 179.103 74.3482 178.15 73.6446C177.927 73.4474 177.665 73.2988 177.381 73.2082C177.097 73.1176 176.797 73.0871 176.5 73.1185C176.204 73.1499 175.917 73.2426 175.658 73.3907C175.4 73.5387 175.175 73.739 174.998 73.9786C174.821 74.2182 174.696 74.4919 174.631 74.7823C174.566 75.0728 174.562 75.3736 174.62 75.6656C174.677 75.9576 174.795 76.2344 174.966 76.4784C175.137 76.7224 175.357 76.9282 175.612 77.0828L175.602 77.0847Z" fill="#DD2052"/>
<path opacity="0.1" d="M183.978 47.8015C183.978 48.9827 181.83 52.4072 181.83 52.4072C181.83 52.4072 179.682 48.9827 179.682 47.8015C179.66 47.5074 179.699 47.212 179.797 46.9337C179.894 46.6555 180.049 46.4003 180.25 46.1842C180.451 45.9682 180.694 45.7958 180.965 45.678C181.236 45.5601 181.528 45.4993 181.824 45.4993C182.119 45.4993 182.412 45.5601 182.682 45.678C182.953 45.7958 183.197 45.9682 183.398 46.1842C183.599 46.4003 183.753 46.6555 183.851 46.9337C183.949 47.212 183.988 47.5074 183.966 47.8015H183.978Z" fill="#DD2052"/>
<path opacity="0.1" d="M187.511 54.3427C186.868 55.3348 183.205 57.0461 183.205 57.0461C183.205 57.0461 183.271 53.0095 183.914 52.0174C184.056 51.7599 184.25 51.5344 184.484 51.3549C184.717 51.1755 184.985 51.0459 185.271 50.9743C185.557 50.9027 185.855 50.8907 186.146 50.9389C186.437 50.987 186.714 51.0944 186.962 51.2544C187.209 51.4143 187.421 51.6234 187.584 51.8685C187.747 52.1137 187.858 52.3897 187.909 52.6794C187.961 52.9691 187.952 53.2663 187.883 53.5524C187.815 53.8386 187.688 54.1076 187.511 54.3427Z" fill="#DD2052"/>
<path opacity="0.1" d="M187.357 65.5246C186.3 66.0567 182.279 65.6884 182.279 65.6884C182.279 65.6884 184.378 62.2365 185.435 61.7044C185.688 61.5527 185.97 61.4547 186.263 61.4165C186.556 61.3784 186.854 61.401 187.137 61.4829C187.421 61.5648 187.685 61.7043 187.912 61.8925C188.14 62.0808 188.326 62.3138 188.459 62.5771C188.592 62.8403 188.669 63.1282 188.686 63.4225C188.702 63.7169 188.658 64.0115 188.555 64.288C188.452 64.5644 188.294 64.8167 188.089 65.0292C187.884 65.2416 187.637 65.4096 187.364 65.5227L187.357 65.5246Z" fill="#DD2052"/>
<path opacity="0.1" d="M185.331 73.9662C184.38 74.6678 180.345 74.9855 180.345 74.9855C180.345 74.9855 181.83 71.2296 182.783 70.526C183.241 70.2479 183.788 70.1511 184.314 70.2548C184.841 70.3585 185.309 70.6551 185.628 71.0863C185.946 71.5175 186.091 72.052 186.035 72.5846C185.978 73.1172 185.724 73.6094 185.322 73.9642L185.331 73.9662Z" fill="#DD2052"/>
<path opacity="0.1" d="M178.705 57.2761C179.555 58.0986 183.509 58.9523 183.509 58.9523C183.509 58.9523 182.533 55.0327 181.691 54.2082C181.275 53.8592 180.743 53.6803 180.2 53.7075C179.658 53.7348 179.146 53.9661 178.767 54.3549C178.389 54.7438 178.172 55.2613 178.16 55.8033C178.149 56.3453 178.343 56.8716 178.705 57.2761Z" fill="#DD2052"/>
<path opacity="0.1" d="M176.461 67.1697C177.518 67.7018 181.539 67.3334 181.539 67.3334C181.539 67.3334 179.439 63.8816 178.383 63.3495C177.882 63.1419 177.321 63.1312 176.812 63.3194C176.304 63.5076 175.885 63.8808 175.641 64.3642C175.397 64.8475 175.345 65.4052 175.495 65.9252C175.646 66.4452 175.988 66.8891 176.453 67.1678L176.461 67.1697Z" fill="#DD2052"/>
<path opacity="0.1" d="M175.602 77.0847C176.553 77.7864 180.588 78.1041 180.588 78.1041C180.588 78.1041 179.103 74.3482 178.15 73.6446C177.927 73.4474 177.665 73.2988 177.381 73.2082C177.097 73.1176 176.797 73.0871 176.5 73.1185C176.204 73.1499 175.917 73.2426 175.658 73.3907C175.4 73.5387 175.175 73.739 174.998 73.9786C174.821 74.2182 174.696 74.4919 174.631 74.7823C174.566 75.0728 174.562 75.3736 174.62 75.6656C174.677 75.9576 174.795 76.2344 174.966 76.4784C175.137 76.7224 175.357 76.9282 175.612 77.0828L175.602 77.0847Z" fill="#DD2052"/>
<path opacity="0.1" d="M105.448 115.272C158.494 110.109 200.821 99.015 199.988 90.4933C199.156 81.9716 155.479 79.2488 102.433 84.4117C49.3873 89.5746 7.06035 100.668 7.89305 109.19C8.72575 117.712 52.4028 120.434 105.448 115.272Z" fill="#DD2052"/>
<path d="M191.63 91.851C195.241 84.464 194.495 72.44 194.11 68.3586C194.026 67.4659 193.959 66.9533 193.959 66.9533C193.959 66.9533 190.776 66.4524 191.95 62.6068C192.524 60.724 190.485 59.6832 188.259 59.1121C186.667 58.7322 185.043 58.5031 183.408 58.428L152.573 56.5276C148.344 49.8305 140.025 50.9064 140.025 50.9064C140.025 50.9064 132.604 50.1365 127.342 50.0566C126.544 49.3545 125.669 48.7445 124.733 48.2381C124.176 47.9038 123.582 47.6338 122.964 47.4331C122.212 47.2166 121.42 47.1788 120.651 47.3226C119.881 47.4665 119.157 47.788 118.534 48.2615C118.231 48.4792 117.984 48.7659 117.814 49.0977C117.748 49.2485 117.699 49.406 117.667 49.5674C117.588 49.8426 117.523 50.1217 117.472 50.4036C117.426 50.5392 117.36 50.6673 117.277 50.7836C117.066 51.0818 116.703 51.306 116.656 51.6666C116.655 51.6873 116.655 51.7082 116.656 51.7289C116.617 51.7978 116.591 51.8731 116.58 51.9511C116.565 52.1116 116.6 52.2726 116.679 52.4131C116.691 52.4365 116.705 52.4579 116.718 52.4793C116.459 52.8545 116.247 53.2604 116.087 53.6878C116.015 53.727 115.945 53.7706 115.878 53.8184L115.82 53.8613V53.9801L115.787 54.0055L115.714 55.9253L115.755 55.9565C115.815 56.8521 116.085 57.721 116.546 58.4921C117.006 59.2631 117.643 59.9144 118.404 60.3927C118.429 60.5155 118.452 60.6402 118.476 60.7708C118.583 61.4003 118.632 62.0385 118.62 62.677H118.587C117.669 62.2872 116.099 62.8602 114.75 63.5288H97.2668C100.677 59.1511 104.848 55.7558 104.848 55.7558V51.9083C101.868 51.7601 75.6867 64.3123 69.9469 67.0839L69.6931 67.2067L40.1937 68.1189C34.8504 68.0857 30.179 68.8693 26.1324 70.1459C19.3705 72.2658 13.294 76.1401 8.52461 81.3727C5.04054 85.189 3.51333 88.3427 3.51333 88.3427L3.54653 88.6077L3.51333 88.676L3.5602 88.7169L4.35505 94.9774L4.90188 99.2849C1.10143 101.737 6.02483 102.719 6.02483 102.719C10.7119 106.73 18.2523 106.565 18.2523 106.565C20.0939 109.073 25.4548 108.738 25.4548 108.738H53.5949C54.0332 106.16 54.62 103.609 55.3525 101.098C56.5536 109.73 63.3792 116.343 71.6167 116.343C72.2277 116.343 72.8382 116.306 73.4447 116.232C74.0512 116.306 74.6616 116.343 75.2727 116.343C83.6059 116.343 90.492 109.574 91.5759 100.797H92.9527C92.6957 102.758 92.249 104.69 91.6189 106.565C116.912 99.2089 163.98 95.6985 163.98 95.6985C164.175 93.8469 164.39 92.0576 164.622 90.3405C166.562 95.145 170.958 98.4994 176.074 98.4994C176.539 98.4987 177.004 98.4701 177.465 98.4136C177.926 98.4701 178.391 98.4987 178.855 98.4994C184.931 98.4994 189.987 93.7689 191.128 87.4968C191.279 88.6037 191.365 89.7186 191.386 90.8356C191.169 91.8998 190.979 92.58 190.954 92.6755C191.106 92.3974 191.251 92.1129 191.387 91.8218C191.387 91.9348 191.387 92.0518 191.387 92.1687C191.341 92.3636 191.307 92.4728 191.298 92.5098L191.384 92.35C191.384 92.4358 191.384 92.5196 191.384 92.6053C191.364 92.6131 191.468 92.3325 191.63 91.851Z" fill="url(#paint0_linear)"/>
<path d="M188.679 65.3083H130.696V88.6526H188.679V65.3083Z" fill="#6F7D95"/>
<path d="M115.953 54.3758L124.188 72.7889L140.497 71.8027L141.156 64.2402L141.65 55.3621L118.589 53.717L115.953 54.3758Z" fill="#4B5C7A"/>
<path d="M115.953 54.3758C115.953 54.3758 119.077 51.4171 122.872 50.7583C126.667 50.0995 139.345 51.4151 139.345 51.4151L141.158 54.5337L140.818 56.0189L115.953 54.3758Z" fill="#DD2052"/>
<path d="M147.003 63.8289H88.5254V80.9264H147.003V63.8289Z" fill="#4B5C7A"/>
<path d="M132.615 75.4611C134.16 70.3058 131.08 66.9183 131.08 66.9183L125.975 63.3631C125.971 63.3752 125.966 63.3869 125.96 63.3982C125.296 62.6216 124.82 61.7024 124.571 60.7124C124.555 60.65 124.542 60.5857 124.526 60.5174C124.993 60.1714 125.401 59.7536 125.737 59.2798C126.569 58.7711 126.94 57.9524 127.081 57.1358C127.616 56.3431 128.042 55.4824 128.348 54.5766C128.399 54.4301 128.442 54.2811 128.477 54.1303C128.575 53.8494 128.619 53.5524 128.606 53.2551C128.564 52.9241 128.454 52.6055 128.282 52.3196C127.422 50.7603 125.876 49.6746 124.307 48.7897C123.759 48.4611 123.175 48.1957 122.567 47.9984C121.828 47.7857 121.049 47.7486 120.293 47.8901C119.537 48.0316 118.824 48.3477 118.212 48.8131C117.914 49.0273 117.671 49.3092 117.503 49.6357C117.439 49.784 117.39 49.9389 117.359 50.0976C117.283 50.3684 117.221 50.643 117.173 50.9201C117.131 51.0525 117.069 51.178 116.99 51.2924C116.781 51.5847 116.425 51.805 116.378 52.1617C116.377 52.1825 116.377 52.2033 116.378 52.224C116.341 52.2918 116.316 52.3657 116.304 52.4423C116.29 52.6001 116.324 52.7585 116.402 52.8965C116.414 52.9199 116.427 52.9413 116.441 52.9628C116.185 53.3318 115.977 53.7312 115.82 54.1517C115.748 54.1903 115.679 54.2333 115.613 54.2803L115.556 54.3213V54.4382L115.523 54.4636L115.451 56.3522L115.49 56.3834C115.547 57.2643 115.813 58.1191 116.266 58.8777C116.718 59.6362 117.345 60.277 118.093 60.7474C118.118 60.8683 118.142 60.9911 118.163 61.1197C118.281 61.7998 118.328 62.4902 118.304 63.1799C118.296 63.1204 118.296 63.0601 118.304 63.0006C116.892 62.3632 113.812 64.1252 112.572 64.9049C112.384 64.9938 112.209 65.1071 112.051 65.242L112.029 65.2576C111.176 65.9476 109.49 67.8655 108.153 72.7948C106.297 79.6731 106.491 81.2324 105.139 82.8268C103.788 84.4211 102.446 95.6538 102.446 95.6538L105.167 96.3847L105.514 95.2698C108.748 98.2129 117.804 99.6299 117.804 99.6299L118.081 98.7704C119.47 99.2693 121.792 98.5111 121.792 98.5111C125.186 97.3144 126.458 94.2777 128.92 90.2723C131.383 86.2669 132.615 75.4611 132.615 75.4611ZM118.925 96.1859L125.194 76.7787C125.762 79.792 123.255 84.5381 123.032 87.641C122.893 89.6369 120.566 93.6033 118.925 96.1859Z" fill="url(#paint1_linear)"/>
<path d="M126.768 55.0405C126.768 55.0405 127.86 59.1901 124.62 59.9132C121.38 60.6363 123.515 58.0479 123.515 58.0479L126.639 55.0093L126.768 55.0405Z" fill="#472727"/>
<path d="M113.222 64.9302C113.222 64.9302 110.813 65.9047 109.041 72.4693C107.27 79.0338 107.446 80.5151 106.17 82.0413C104.895 83.5674 103.589 94.2758 103.589 94.2758L106.139 94.9618L108.36 87.8048L114.467 68.8985L113.222 64.9302Z" fill="#DDE0E4"/>
<path opacity="0.05" d="M113.222 64.9302C113.222 64.9302 110.813 65.9047 109.041 72.4693C107.27 79.0338 107.446 80.5151 106.17 82.0413C104.895 83.5674 103.589 94.2758 103.589 94.2758L106.139 94.9618L108.36 87.8048L114.467 68.8985L113.222 64.9302Z" fill="black"/>
<path d="M126.604 64.1895C126.604 64.1895 116.515 69.3078 117.992 65.969C118.722 64.3201 118.695 62.6107 118.482 61.2912C118.36 60.514 118.147 59.7537 117.847 59.0264C117.847 59.0264 124.706 53.6118 124.304 58.0323C124.207 58.9838 124.273 59.9447 124.499 60.8741C125.093 63.2189 126.604 64.1895 126.604 64.1895Z" fill="#DB8B8B"/>
<path opacity="0.1" d="M124.499 60.8819C123.85 61.4019 123.087 61.7613 122.272 61.9307C121.458 62.1001 120.615 62.0746 119.812 61.8565C119.342 61.7304 118.892 61.5409 118.474 61.2932C118.352 60.5159 118.139 59.7557 117.839 59.0283C117.839 59.0283 124.698 53.6137 124.296 58.0343C124.201 58.9881 124.27 59.951 124.499 60.8819Z" fill="black"/>
<path d="M126.364 57.8761C127.123 55.0655 125.454 52.1735 122.638 51.4167C119.822 50.6599 116.924 52.3249 116.166 55.1355C115.408 57.9462 117.076 60.8381 119.892 61.5949C122.708 62.3517 125.606 60.6867 126.364 57.8761Z" fill="#DB8B8B"/>
<path opacity="0.1" d="M118.613 53.9353C118.468 54.0237 118.306 54.0819 118.138 54.1064C117.971 54.131 117.799 54.1214 117.635 54.0783C117.471 54.0351 117.317 53.9593 117.183 53.8554C117.049 53.7514 116.937 53.6215 116.855 53.4734C116.783 53.3413 116.751 53.1907 116.765 53.0407C116.81 52.7016 117.146 52.4911 117.351 52.2104C117.669 51.7563 117.609 51.1345 117.839 50.6297C117.998 50.3214 118.227 50.0544 118.507 49.85C119.078 49.4047 119.746 49.1006 120.457 48.9623C121.168 48.8241 121.902 48.8558 122.599 49.0548C123.168 49.2404 123.715 49.4908 124.227 49.8013C125.696 50.6375 127.143 51.6607 127.938 53.1479C128.099 53.4208 128.201 53.7241 128.239 54.0386C128.248 54.3784 128.188 54.7165 128.063 55.0327C127.769 55.9062 127.36 56.7367 126.846 57.5022C126.674 57.2892 126.459 57.1157 126.213 56.9935C126.09 56.9351 125.951 56.917 125.816 56.9419C125.682 56.9667 125.558 57.0332 125.464 57.1319C125.294 57.3482 125.19 57.7614 124.932 57.664C124.764 57.6016 124.766 57.3696 124.774 57.1903C124.809 56.4107 124.384 55.6759 123.811 55.1496C123.239 54.6234 122.53 54.2764 121.831 53.9353C121.329 53.6898 120.659 53.1265 120.109 53.0271C119.425 52.9004 119.103 53.6332 118.613 53.9353Z" fill="black"/>
<path d="M118.685 53.6683C118.54 53.7566 118.379 53.8148 118.211 53.8394C118.043 53.864 117.872 53.8544 117.707 53.8112C117.543 53.7681 117.389 53.6923 117.255 53.5883C117.121 53.4844 117.01 53.3545 116.927 53.2064C116.855 53.0743 116.823 52.9236 116.837 52.7737C116.882 52.4345 117.218 52.224 117.423 51.9434C117.742 51.4892 117.681 50.8675 117.912 50.3626C118.07 50.0543 118.299 49.7873 118.579 49.583C119.15 49.1377 119.818 48.8335 120.529 48.6953C121.241 48.5571 121.974 48.5888 122.671 48.7878C123.241 48.9733 123.787 49.2238 124.3 49.5343C125.768 50.3704 127.215 51.3937 128.01 52.8809C128.171 53.1538 128.274 53.4571 128.311 53.7716C128.32 54.1114 128.26 54.4494 128.135 54.7656C127.841 55.6391 127.432 56.4696 126.919 57.2352C126.747 57.0222 126.531 56.8486 126.286 56.7264C126.162 56.6681 126.023 56.65 125.888 56.6749C125.754 56.6997 125.63 56.7662 125.536 56.8648C125.366 57.0812 125.262 57.4944 125.005 57.3969C124.837 57.3346 124.839 57.1026 124.846 56.9233C124.882 56.1437 124.456 55.4089 123.884 54.8826C123.311 54.3563 122.603 54.0094 121.903 53.6683C121.401 53.4227 120.732 52.8594 120.181 52.76C119.497 52.6314 119.175 53.3662 118.685 53.6683Z" fill="#472727"/>
<path d="M121.45 64.8873C121.45 64.8873 125.628 64.0706 125.809 63.4021L130.586 66.7682C130.586 66.7682 133.461 69.9822 131.99 74.9017C131.99 74.9017 130.793 85.2105 128.465 89.0366C126.137 92.8626 124.8 97.8192 121.61 98.9769C121.61 98.9769 118.544 97.0045 117.533 97.0279C117.533 97.0279 122.726 89.518 122.948 86.5612C123.171 83.6044 125.544 79.0709 125.024 76.2018L117.994 98.0121C117.994 98.0121 106.666 96.258 105.518 92.506C105.518 92.506 106.495 91.0422 106.313 89.5589C106.131 88.0757 110.586 76.9171 110.586 76.9171L112.719 65.281C112.719 65.281 116.937 62.3398 118.617 63.1039C118.609 63.0922 118.304 64.5443 121.45 64.8873Z" fill="#DDE0E4"/>
<g opacity="0.1">
<path opacity="0.1" d="M122.972 55.8396C121.94 54.4363 119.974 55.5882 119.652 55.7889L119.146 55.7383C118.704 55.2588 117.351 53.9841 116.08 54.9216L116.025 54.9625L115.949 56.7615L116.003 56.8044C116.371 57.0874 116.787 57.3001 117.232 57.432C117.513 57.5146 117.811 57.5293 118.099 57.4749C118.312 57.4258 118.512 57.3305 118.685 57.1958C118.857 57.0611 118.998 56.8902 119.097 56.6953L119.361 56.7128L119.556 56.6758C119.595 56.8831 119.678 57.0796 119.799 57.2524C119.92 57.4251 120.077 57.5701 120.259 57.6776C121.132 58.1707 122.407 57.6776 122.46 57.6679L122.526 57.6425L122.995 55.902L122.972 55.8396ZM122.31 57.4223C122.05 57.51 121.069 57.7985 120.411 57.4223C120.247 57.3198 120.109 57.181 120.008 57.0168C119.906 56.8525 119.844 56.6672 119.825 56.475L119.802 56.3327L119.374 56.4204L118.945 56.4049L118.904 56.4867C118.825 56.6638 118.707 56.8205 118.559 56.9449C118.41 57.0692 118.235 57.1579 118.046 57.204C117.31 57.3619 116.459 56.7927 116.236 56.6309L116.3 55.1107C117.406 54.368 118.624 55.5726 118.976 55.9663L119.013 56.0072L119.726 56.0774L119.769 56.0482C119.788 56.0365 121.56 54.8495 122.569 55.8045C122.619 55.8509 122.666 55.901 122.708 55.9546L122.31 57.4223Z" fill="black"/>
<path opacity="0.1" d="M126.171 56.744L122.851 56.4692L122.577 56.4165L122.7 55.9565C122.658 55.903 122.612 55.8528 122.562 55.8065L122.964 55.8454L125.68 56.1105L126.171 56.744Z" fill="black"/>
</g>
<path d="M123.007 55.7148C121.976 54.3115 120.009 55.4634 119.687 55.6642L119.181 55.6135C118.74 55.134 117.386 53.8593 116.115 54.7968L116.06 54.8378L115.984 56.6368L116.039 56.6796C116.406 56.9626 116.822 57.1754 117.267 57.3072C117.549 57.3899 117.846 57.4046 118.134 57.3501C118.348 57.301 118.547 57.2057 118.72 57.071C118.892 56.9363 119.033 56.7654 119.132 56.5705L119.396 56.588L119.591 56.551C119.63 56.7583 119.713 56.9549 119.834 57.1276C119.956 57.3004 120.112 57.4453 120.294 57.5528C121.167 58.046 122.442 57.5528 122.495 57.5431L122.561 57.5177L123.03 55.7772L123.007 55.7148ZM122.345 57.2975C122.085 57.3852 121.105 57.6737 120.446 57.2975C120.283 57.195 120.144 57.0563 120.043 56.892C119.941 56.7278 119.879 56.5424 119.861 56.3502L119.837 56.208L119.409 56.2957L118.986 56.2684L118.945 56.3502C118.868 56.5283 118.751 56.6863 118.603 56.812C118.455 56.9378 118.28 57.0278 118.091 57.0753C117.355 57.2332 116.503 56.664 116.281 56.5023L116.345 54.982C117.451 54.2394 118.669 55.4439 119.021 55.8376L119.058 55.8786L119.771 55.9487L119.814 55.9195C119.833 55.9078 121.605 54.7208 122.614 55.6759C122.664 55.7222 122.711 55.7724 122.753 55.8259L122.345 57.2975Z" fill="#472727"/>
<path d="M126.202 56.6192L122.893 56.3444L122.62 56.2918L122.743 55.8318C122.701 55.7782 122.655 55.7281 122.604 55.6817L123.007 55.7207L125.723 55.9858L126.202 56.6192Z" fill="#472727"/>
<path d="M103.514 77.1451H45.5311V100.489H103.514V77.1451Z" fill="#6F7D95"/>
<path d="M72.0678 115.778C81.0039 115.778 88.2481 107.866 88.2481 98.1057C88.2481 88.3455 81.0039 80.4333 72.0678 80.4333C63.1318 80.4333 55.8876 88.3455 55.8876 98.1057C55.8876 107.866 63.1318 115.778 72.0678 115.778Z" fill="#4B5C7A"/>
<path opacity="0.05" d="M72.0678 115.778C81.0039 115.778 88.2481 107.866 88.2481 98.1057C88.2481 88.3455 81.0039 80.4333 72.0678 80.4333C63.1318 80.4333 55.8876 88.3455 55.8876 98.1057C55.8876 107.866 63.1318 115.778 72.0678 115.778Z" fill="black"/>
<path d="M75.6633 115.778C84.5994 115.778 91.8435 107.866 91.8435 98.1057C91.8435 88.3455 84.5994 80.4333 75.6633 80.4333C66.7272 80.4333 59.4831 88.3455 59.4831 98.1057C59.4831 107.866 66.7272 115.778 75.6633 115.778Z" fill="#4B5C7A"/>
<path opacity="0.05" d="M75.3039 105.372C79.2753 105.372 82.4947 102.159 82.4947 98.1954C82.4947 94.2319 79.2753 91.0188 75.3039 91.0188C71.3326 91.0188 68.1132 94.2319 68.1132 98.1954C68.1132 102.159 71.3326 105.372 75.3039 105.372Z" fill="black"/>
<path d="M75.3039 100.349C76.4957 100.349 77.4619 99.3848 77.4619 98.1954C77.4619 97.0059 76.4957 96.0416 75.3039 96.0416C74.112 96.0416 73.1459 97.0059 73.1459 98.1954C73.1459 99.3848 74.112 100.349 75.3039 100.349Z" stroke="#6F7D95" stroke-width="2" stroke-miterlimit="10"/>
<path d="M75.304 94.9657C75.6017 94.9657 75.843 94.7249 75.843 94.4278C75.843 94.1307 75.6017 93.8898 75.304 93.8898C75.0063 93.8898 74.765 94.1307 74.765 94.4278C74.765 94.7249 75.0063 94.9657 75.304 94.9657Z" fill="#6F7D95"/>
<path d="M78.5999 95.8787C78.828 95.6877 78.8577 95.3484 78.6664 95.1208C78.475 94.8932 78.135 94.8635 77.907 95.0545C77.6789 95.2455 77.6492 95.5848 77.8406 95.8124C78.0319 96.04 78.3719 96.0697 78.5999 95.8787Z" fill="#6F7D95"/>
<path d="M79.887 98.4837C79.9386 98.1911 79.7429 97.9121 79.4497 97.8605C79.1566 97.8089 78.877 98.0042 78.8253 98.2968C78.7736 98.5894 78.9694 98.8684 79.2625 98.92C79.5557 98.9716 79.8353 98.7762 79.887 98.4837Z" fill="#6F7D95"/>
<path d="M78.0846 101.578C78.3424 101.429 78.4308 101.1 78.2819 100.843C78.1331 100.586 77.8034 100.498 77.5456 100.646C77.2878 100.795 77.1995 101.124 77.3483 101.381C77.4971 101.638 77.8268 101.726 78.0846 101.578Z" fill="#6F7D95"/>
<path d="M75.2467 101.869C75.3485 101.59 75.2043 101.281 74.9245 101.18C74.6448 101.078 74.3355 101.222 74.2337 101.501C74.1319 101.78 74.2761 102.089 74.5558 102.191C74.8356 102.292 75.1449 102.148 75.2467 101.869Z" fill="#6F7D95"/>
<path d="M72.5069 100.208C72.7866 100.106 72.9309 99.7973 72.829 99.5181C72.7272 99.239 72.4179 99.095 72.1382 99.1966C71.8584 99.2982 71.7142 99.6069 71.816 99.8861C71.9178 100.165 72.2271 100.309 72.5069 100.208Z" fill="#6F7D95"/>
<path d="M72.7583 96.8469C72.9072 96.5896 72.8188 96.2606 72.561 96.112C72.3032 95.9635 71.9735 96.0516 71.8247 96.3089C71.6758 96.5662 71.7642 96.8952 72.022 97.0438C72.2798 97.1923 72.6095 97.1041 72.7583 96.8469Z" fill="#6F7D95"/>
<path d="M191.925 84.4484C191.372 88.2569 189.835 92.426 189.835 92.426C189.845 92.1662 189.852 91.9095 189.854 91.6561C189.854 91.3287 189.854 91.0051 189.854 90.6816C189.659 80.1838 183.927 73.7069 180.23 70.6059C179.269 69.7888 178.236 69.0607 177.143 68.4308H187.191C187.191 68.4308 191.143 76.4864 191.968 80.4313C192.206 81.5384 192.139 82.9671 191.925 84.4484Z" fill="#FF4D52"/>
<path opacity="0.05" d="M191.925 84.4484C191.372 88.2569 189.835 92.426 189.835 92.426C189.845 92.1662 189.852 91.9095 189.854 91.6561C189.854 91.3287 189.854 91.0051 189.854 90.6816C189.659 80.1838 183.927 73.7069 180.23 70.6059C179.269 69.7888 178.236 69.0607 177.143 68.4308H187.191C187.191 68.4308 191.143 76.4864 191.968 80.4313C192.206 81.5384 192.139 82.9671 191.925 84.4484Z" fill="#DD2052"/>
<path d="M174.793 98.2305C181.589 98.2305 187.099 92.2128 187.099 84.7895C187.099 77.3663 181.589 71.3485 174.793 71.3485C167.997 71.3485 162.488 77.3663 162.488 84.7895C162.488 92.2128 167.997 98.2305 174.793 98.2305Z" fill="#4B5C7A"/>
<path opacity="0.05" d="M174.793 98.2305C181.589 98.2305 187.099 92.2128 187.099 84.7895C187.099 77.3663 181.589 71.3485 174.793 71.3485C167.997 71.3485 162.488 77.3663 162.488 84.7895C162.488 92.2128 167.997 98.2305 174.793 98.2305Z" fill="black"/>
<path d="M177.527 98.2305C184.324 98.2305 189.833 92.2128 189.833 84.7895C189.833 77.3663 184.324 71.3485 177.527 71.3485C170.731 71.3485 165.222 77.3663 165.222 84.7895C165.222 92.2128 170.731 98.2305 177.527 98.2305Z" fill="#4B5C7A"/>
<path opacity="0.05" d="M177.254 90.3152C180.274 90.3152 182.722 87.8718 182.722 84.8577C182.722 81.8437 180.274 79.4003 177.254 79.4003C174.234 79.4003 171.786 81.8437 171.786 84.8577C171.786 87.8718 174.234 90.3152 177.254 90.3152Z" fill="black"/>
<path d="M177.254 86.4949C178.16 86.4949 178.894 85.7619 178.894 84.8577C178.894 83.9535 178.16 83.2205 177.254 83.2205C176.348 83.2205 175.613 83.9535 175.613 84.8577C175.613 85.7619 176.348 86.4949 177.254 86.4949Z" stroke="#6F7D95" stroke-width="2" stroke-miterlimit="10"/>
<path d="M177.254 82.4019C177.48 82.4019 177.664 82.2186 177.664 81.9926C177.664 81.7665 177.48 81.5833 177.254 81.5833C177.027 81.5833 176.844 81.7665 176.844 81.9926C176.844 82.2186 177.027 82.4019 177.254 82.4019Z" fill="#6F7D95"/>
<path d="M179.762 83.0958C179.936 82.9505 179.958 82.6923 179.813 82.5192C179.667 82.346 179.408 82.3234 179.235 82.4687C179.061 82.614 179.039 82.8722 179.184 83.0454C179.33 83.2185 179.589 83.2411 179.762 83.0958Z" fill="#6F7D95"/>
<path d="M180.739 85.0787C180.779 84.856 180.63 84.6437 180.407 84.6045C180.184 84.5652 179.971 84.7139 179.932 84.9365C179.892 85.1591 180.041 85.3714 180.264 85.4107C180.487 85.4499 180.7 85.3013 180.739 85.0787Z" fill="#6F7D95"/>
<path d="M179.37 87.4314C179.567 87.3184 179.634 87.0681 179.521 86.8723C179.407 86.6765 179.156 86.6095 178.96 86.7225C178.764 86.8355 178.697 87.0859 178.81 87.2816C178.923 87.4774 179.174 87.5445 179.37 87.4314Z" fill="#6F7D95"/>
<path d="M177.211 87.6523C177.289 87.4398 177.179 87.205 176.966 87.1277C176.753 87.0504 176.518 87.1599 176.441 87.3723C176.363 87.5847 176.473 87.8196 176.686 87.8969C176.899 87.9742 177.134 87.8647 177.211 87.6523Z" fill="#6F7D95"/>
<path d="M175.127 86.387C175.34 86.3097 175.449 86.0748 175.372 85.8624C175.295 85.65 175.059 85.5405 174.846 85.6178C174.633 85.6951 174.524 85.93 174.601 86.1424C174.679 86.3548 174.914 86.4644 175.127 86.387Z" fill="#6F7D95"/>
<path d="M175.32 83.8317C175.434 83.6359 175.367 83.3856 175.17 83.2726C174.974 83.1595 174.723 83.2266 174.61 83.4224C174.497 83.6182 174.564 83.8685 174.76 83.9815C174.956 84.0945 175.207 84.0275 175.32 83.8317Z" fill="#6F7D95"/>
<path d="M6.57555 99.9145L5.0874 88.2413H22.7128L31.7726 96.2969L27.3257 106.654C27.3257 106.654 9.3839 103.696 6.57555 99.9145Z" fill="#FF4D52"/>
<path opacity="0.05" d="M31.7785 96.2969L27.3316 106.654C27.3316 106.654 9.38396 103.696 6.57561 99.9145L6.51117 99.4058L5.1441 88.6117L5.13043 88.5045L5.09723 88.2433H22.7226L31.7785 96.2969Z" fill="black"/>
<path d="M104.753 52.4034V56.1846C104.753 56.1846 95.6439 63.5912 93.4762 70.5787C93.0978 71.7133 92.9549 72.913 93.0563 74.1046C93.8804 81.8308 69.3396 67.8558 69.3396 67.8558L70.4313 67.3256C76.0734 64.6105 101.821 52.2552 104.753 52.4034Z" fill="#7597CE"/>
<path d="M125.509 70.6527C125.509 70.6527 134.039 66.47 135.408 63.3748C135.592 62.9597 135.765 62.5406 135.969 62.1332C136.814 60.4356 138.591 56.4536 137.697 54.5415C136.545 52.0759 140.497 54.8709 140.497 54.8709L138.191 66.5401L132.59 69.6587L125.343 70.6527" fill="#FF4D52"/>
<path opacity="0.05" d="M125.509 70.6527C125.509 70.6527 134.039 66.47 135.408 63.3748C135.592 62.9597 135.765 62.5406 135.969 62.1332C136.814 60.4356 138.591 56.4536 137.697 54.5415C136.545 52.0759 140.497 54.8709 140.497 54.8709L138.191 66.5401L132.59 69.6587L125.343 70.6527" fill="#DD2052"/>
<path opacity="0.05" d="M31.7785 96.2969L27.3316 106.654C27.3316 106.654 9.38396 103.696 6.57562 99.9145L6.51117 99.4058C6.58343 99.357 6.65959 99.3064 6.73966 99.2576C6.73966 99.2576 12.1747 103.532 24.5311 104.52C24.5311 104.52 31.9523 98.6008 19.9182 92.0265C19.9182 92.0265 9.45036 92.3539 5.13824 88.6136L5.09137 88.5746L5.12457 88.5064C5.15321 88.4505 5.19943 88.3635 5.26323 88.2452H22.7168L31.7785 96.2969Z" fill="black"/>
<path opacity="0.05" d="M93.0563 74.1026C93.8804 81.8308 69.3396 67.8558 69.3396 67.8558L70.4313 67.3256C71.1539 68.0936 74.0384 70.6839 79.8055 70.4032C83.5161 70.222 89.1504 70.3877 93.4859 70.5767C93.1042 71.7107 92.958 72.9104 93.0563 74.1026Z" fill="black"/>
<path opacity="0.05" d="M103.516 77.1451V100.489H92.7438C93.4546 95.0593 93.0445 87.144 86.135 82.6065C83.5579 80.9253 80.5656 79.9873 77.4882 79.8958C74.4108 79.8043 71.3679 80.563 68.6951 82.088C64.1662 84.6686 59.1022 89.9156 55.8837 100.489H45.5331V77.1451H103.516Z" fill="black"/>
<path opacity="0.05" d="M191.925 84.4484C191.518 87.0251 190.866 89.5278 189.856 91.6601C189.726 91.9472 189.584 92.2272 189.431 92.5001C189.456 92.4046 189.642 91.738 189.856 90.6894C190.903 85.5828 192.694 71.4518 180.695 70.6449C180.539 70.6352 180.385 70.6254 180.23 70.6196C179.27 69.7977 178.236 69.065 177.143 68.4308H187.191C187.191 68.4308 191.143 76.4864 191.968 80.4313C192.206 81.5384 192.139 82.9671 191.925 84.4484Z" fill="black"/>
<path d="M189.757 92.3403C189.913 91.777 195.479 71.4596 181.021 70.487C166.36 69.5008 164.548 80.5151 162.902 95.4764C162.902 95.4764 116.617 98.9282 91.74 106.163C91.74 106.163 97.7122 89.8299 86.467 82.4428C83.89 80.7616 80.8977 79.8236 77.8203 79.7321C74.7429 79.6406 71.6999 80.3992 69.0272 81.9243C63.4808 85.0858 57.1278 92.2545 54.3488 108.299H26.6715C26.6715 108.299 21.3985 108.629 19.5881 106.155C19.5881 106.155 12.1669 106.319 7.56381 102.374C7.56381 102.374 2.62284 101.388 6.57562 98.9224C6.57562 98.9224 12.1767 103.197 24.5311 104.185C24.5311 104.185 31.9523 98.2655 19.9182 91.6912C19.9182 91.6912 9.37225 92.0206 5.09333 88.2394C5.09333 88.2394 6.59515 85.1384 10.0226 81.3864C14.7105 76.2398 20.6837 72.4281 27.3316 70.3409C31.8111 68.9588 36.4801 68.2866 41.1683 68.3489L70.2419 67.4445C70.2419 67.4445 73.0503 71.062 79.7958 70.7326C86.5413 70.4032 99.7276 71.2258 99.7276 71.2258H99.8585L126.989 69.9998C127.768 69.89 128.539 69.7272 129.295 69.5125C133.229 68.4463 140.689 65.2128 139.343 56.1826L182.007 58.8139C183.615 58.8877 185.213 59.1128 186.779 59.4864C188.97 60.0477 190.974 61.0729 190.409 62.9246C189.257 66.7058 192.385 67.1989 192.385 67.1989C192.385 67.1989 192.452 67.7037 192.534 68.5808C192.925 72.7168 193.692 85.152 189.757 92.3403Z" fill="#DD2052"/>
<path opacity="0.05" d="M59.2878 74.2683C59.2878 74.2683 41.4964 74.432 29.7982 84.7934H36.3875C36.3875 84.7934 54.837 80.0259 59.2839 76.2447L59.2878 74.2683Z" fill="black"/>
<path d="M59.1218 74.1026C59.1218 74.1026 41.3304 74.2663 29.6322 84.6277H36.2215C36.2215 84.6277 54.671 79.8602 59.1179 76.079L59.1218 74.1026Z" fill="#FFEC9F"/>
<path opacity="0.05" d="M27.4956 70.5065V74.9251L12.5086 81.8308L10.1885 81.5521C14.8759 76.4058 20.8484 72.5941 27.4956 70.5065Z" fill="black"/>
<path d="M27.3297 70.3428V74.7614L12.3407 81.6651L10.0206 81.3864C14.7088 76.2405 20.682 72.4295 27.3297 70.3428Z" fill="#FFEC9F"/>
<path opacity="0.05" d="M48.5797 90.3795C48.5797 90.3795 40.5082 95.3107 39.684 106.167H44.2969C44.2969 106.167 46.1092 94.3303 51.3803 90.3795H48.5797Z" fill="black"/>
<path opacity="0.05" d="M143.958 90.7089L102.116 95.6401C102.116 95.6401 99.3487 78.0593 99.8604 71.2199L126.991 69.9939C127.769 69.886 128.539 69.7251 129.295 69.5125V71.1439L149.721 66.2127C149.721 66.2127 153.182 71.3076 143.958 90.7089Z" fill="#DD2052"/>
<path d="M139.345 51.4151C139.345 51.4151 148.241 50.2652 152.194 57.8277L139.472 57.3384L139.345 51.4151Z" fill="#DD2052"/>
<path opacity="0.05" d="M151.576 60.4784C151.227 61.5719 151.491 62.7745 153.516 63.6067C155.201 64.3006 157.178 63.4976 157.754 61.7726C158.09 60.7669 157.859 59.6286 156.043 58.7028C154.227 57.777 152.188 58.5683 151.576 60.4784Z" fill="black"/>
<path d="M5.4057 90.705C5.4057 90.705 15.9634 96.1624 23.5408 94.0964" stroke="#FF4D52" stroke-miterlimit="10"/>
<path d="M5.77881 93.652C5.77881 93.652 12.6005 98.9029 26.3883 97.6828" stroke="#FF4D52" stroke-miterlimit="10"/>
<path d="M6.09326 96.1254C6.09326 96.1254 12.8602 101.986 26.7653 100.129" stroke="#FF4D52" stroke-miterlimit="10"/>
<path opacity="0.05" d="M151.684 56.9447C151.684 56.9447 146.181 61.6869 141.158 63.8309C141.158 63.8309 148.786 65.1855 151.684 56.9447Z" fill="black"/>
<path opacity="0.1" d="M93.3805 70.9022C93.3805 70.9022 119.495 73.3639 129.377 71.062C129.377 71.062 129.905 71.4109 126.758 70.0037L93.3805 70.9022Z" fill="black"/>
<path opacity="0.05" d="M192.536 68.5808C190.909 67.5147 188.329 65.3025 188.681 62.8407C188.856 61.607 187.982 60.4531 186.78 59.4844C188.972 60.0457 190.975 61.071 190.411 62.9226C189.259 66.7038 192.387 67.197 192.387 67.197C192.387 67.197 192.452 67.7037 192.536 68.5808Z" fill="black"/>
<path d="M61.2798 85.7407C61.2954 85.0897 61.2798 84.4133 61.231 83.7916C61.231 83.6727 61.2114 83.5577 61.1997 83.4446C61.5669 83.7214 61.7856 83.9319 61.7856 83.9319L61.4634 67.006L59.6862 58.1395C59.6862 51.8518 56.2939 50.08 56.2939 50.08C56.2939 50.08 54.5167 49.2731 54.0324 48.1465C53.548 47.02 49.2555 44.6382 49.2535 44.6382C49.2195 44.2278 49.2065 43.8161 49.2144 43.4044C49.2144 43.2972 49.2144 43.1861 49.2242 43.075C50.3004 42.3629 51.081 41.2851 51.4211 40.042C51.7613 38.7988 51.6378 37.4747 51.0737 36.3155C51.3119 36.3155 51.5053 36.2161 51.5951 35.8633C51.8802 34.7465 51.6049 33.0645 50.9565 32.1718C50.8178 31.9851 50.6615 31.8121 50.4897 31.6553C50.2885 31.4538 50.0766 31.2631 49.855 31.0842C49.3004 30.6242 48.6832 30.1408 47.9958 30.1798C47.6058 30.2307 47.2311 30.3636 46.8963 30.5696C45.179 31.4714 43.4663 32.381 41.7581 33.2983C41.1273 33.6394 40.4769 33.9981 40.0356 34.6101C39.5942 35.2221 39.4165 36.0056 39.2934 36.7755C39.19 37.2971 39.1656 37.8313 39.2212 38.3601C39.2728 38.8414 39.4935 39.2888 39.8442 39.6232C39.9149 39.7084 39.9955 39.785 40.0844 39.8512C40.432 40.1046 40.8792 40.167 41.2425 40.3716C41.5171 41.1674 41.9769 41.8868 42.5842 42.4708C42.5842 42.5702 42.5705 42.6657 42.5627 42.7748C42.5412 43.0536 42.508 43.3596 42.465 43.6695C42.465 43.6695 41.2718 43.6383 39.4946 46.0552C37.7174 48.472 33.8408 48.7956 33.8408 48.7956C33.8408 48.7956 32.3878 48.1504 30.7727 55.405C29.1576 62.6595 28.6733 67.4894 29.4799 68.3002C29.8224 68.5952 30.2084 68.8358 30.6243 69.0135C31.9934 69.7033 33.4666 70.1642 34.9852 70.3779C35.0046 70.436 35.0374 70.4888 35.0809 70.5319L35.1962 71.9372C35.2938 74.9037 35.4071 80.8543 34.8056 82.1738C33.997 83.9475 34.9677 85.076 34.9677 85.076L35.163 85.0624C35.199 85.1237 35.2395 85.1823 35.284 85.2378L36.0652 85.1852C36.0086 88.4986 35.8562 93.0946 35.4539 94.1042C34.8075 95.7161 35.4539 104.583 35.4539 104.583L34.3232 120.542C34.3232 120.542 33.7041 128.872 34.2841 129.837C33.9677 131.57 33.3994 134.872 33.5166 135.694C33.6787 136.823 37.3932 138.434 37.3932 138.434C37.3932 138.434 41.7542 139.409 43.8536 139.08C44.9511 138.91 45.3867 138.169 45.3906 137.52C46.8143 137.748 48.6676 137.967 49.8296 137.787C51.9291 137.466 51.6068 135.047 50.4761 135.209C49.3453 135.37 48.0524 133.102 47.0916 131.973C46.6033 131.404 46.1971 130.387 45.9198 129.515C46.1241 129.485 46.3116 129.385 46.451 129.233C46.9353 128.426 47.7439 121.011 47.7439 121.011L49.8433 108.116C49.8433 108.116 50.9741 101.829 51.9427 100.378C52.6751 99.283 53.591 91.1085 53.9953 87.1713H54.0304H54.0421L54.0851 87.0329L54.6925 85.076C55.0167 85.6471 55.833 85.9297 56.7841 86.0506C56.6825 86.4638 56.5986 86.801 56.5497 86.9939C56.3076 87.9685 59.8385 89.5726 60.69 88.7676C61.0474 88.4304 61.2329 87.2083 61.2759 85.8713H61.3052L61.2798 85.7407ZM40.059 129.701C40.0043 130.014 39.9496 130.342 39.895 130.675C39.7719 130.285 39.6743 129.934 39.6079 129.675C39.768 129.681 39.9184 129.689 40.059 129.701Z" fill="url(#paint2_linear)"/>
<path d="M45.4745 126.34C45.4745 126.34 46.0975 129.135 47.0369 130.221C47.9762 131.307 49.2144 133.48 50.3022 133.326C51.39 133.172 51.7025 135.499 49.6792 135.809C47.656 136.119 43.4571 135.187 43.4571 135.187C43.4571 135.187 39.8793 133.628 39.725 132.548C39.5707 131.468 40.6585 125.872 40.6585 125.872L45.4745 126.34Z" fill="#53526B"/>
<path opacity="0.05" d="M45.4745 126.34C45.4745 126.34 46.0975 129.135 47.0369 130.221C47.9762 131.307 49.2144 133.48 50.3022 133.326C51.39 133.172 51.7025 135.499 49.6792 135.809C47.656 136.119 43.4571 135.187 43.4571 135.187C43.4571 135.187 39.8793 133.628 39.725 132.548C39.5707 131.468 40.6585 125.872 40.6585 125.872L45.4745 126.34Z" fill="black"/>
<path d="M39.7191 127.582C39.7191 127.582 40.3421 130.377 41.2815 131.463C42.2209 132.548 43.459 134.721 44.5468 134.567C45.6346 134.413 45.9471 136.741 43.9238 137.051C41.9006 137.36 37.7017 136.431 37.7017 136.431C37.7017 136.431 34.1239 134.871 33.9696 133.792C33.8154 132.712 34.9031 127.116 34.9031 127.116L39.7191 127.582Z" fill="#53526B"/>
<path d="M53.8742 85.0488C53.8742 85.0488 52.6302 98.3981 51.6967 99.7956C50.7632 101.193 49.6754 107.247 49.6754 107.247L47.6541 119.665C47.6541 119.665 46.8729 126.806 46.41 127.582C45.9472 128.358 40.1743 128.024 40.1743 128.024L43.756 86.9121L53.8742 85.0488Z" fill="#5F5D7E"/>
<path opacity="0.05" d="M53.8742 85.0488C53.8742 85.0488 52.6302 98.3981 51.6967 99.7956C50.7632 101.193 49.6754 107.247 49.6754 107.247L47.6541 119.665C47.6541 119.665 46.8729 126.806 46.41 127.582C45.9472 128.358 40.1743 128.024 40.1743 128.024L43.756 86.9121L53.8742 85.0488Z" fill="black"/>
<path d="M56.3622 78.6849L55.956 79.9733L53.7589 86.9335L53.7159 87.066H53.7042C53.4093 87.1323 47.1833 88.561 45.8397 88.9995C45.7672 89.0219 45.6961 89.0486 45.6268 89.0794C45.0038 89.3894 44.2265 100.565 44.2265 100.565C44.2265 100.565 43.7598 111.122 43.4454 111.897C43.1309 112.673 41.883 128.66 41.1116 128.196C40.3402 127.732 34.7352 128.196 34.7352 128.196C34.1122 127.574 34.7352 119.193 34.7352 119.193L35.823 103.824C35.823 103.824 35.2 95.2873 35.823 93.7339C36.446 92.1805 36.446 81.782 36.446 81.782L49.1851 79.8135L50.4155 79.6186L56.3622 78.6849Z" fill="#5F5D7E"/>
<path opacity="0.02" d="M55.956 79.9733L53.7589 86.9335L53.7062 87.07C53.4113 87.1362 47.1853 88.5649 45.8417 89.0035H45.7069L49.1851 79.8135L49.2847 79.5484L50.4155 79.6205L55.956 79.9733Z" fill="black"/>
<path opacity="0.1" d="M41.43 47.6398C41.43 47.6398 47.1853 53.8496 50.7631 48.7254L54.1847 51.0546L53.5617 54.6253L55.583 81.6359C55.583 81.6359 50.2944 81.4799 46.5623 82.7215C45.5229 83.0895 44.3998 83.1535 43.3251 82.9059C42.2505 82.6583 41.2691 82.1095 40.4965 81.324L41.1194 57.5743L39.7192 50.2788L41.43 47.6398Z" fill="black"/>
<path d="M41.43 47.1739C41.43 47.1739 47.1853 53.3837 50.7631 48.2596L54.1847 50.5887L53.5617 54.1595L55.585 81.1778C55.585 81.1778 50.2964 81.0219 46.5643 82.2635C45.5248 82.6315 44.4017 82.6954 43.3271 82.4479C42.2524 82.2003 41.271 81.6514 40.4984 80.866L41.1214 57.1163L39.7211 49.8208L41.43 47.1739Z" fill="#53526B"/>
<path d="M53.4075 79.3047C53.4075 79.3047 53.4075 83.3413 54.341 85.0487C55.2745 86.7561 60.7174 85.8284 60.7174 85.8284L59.6296 80.0844L53.4075 79.3047Z" fill="#D39999"/>
<path d="M60.1256 88.6195C59.3053 89.3991 55.9052 87.8398 56.1396 86.9121C56.3037 86.2552 56.8778 83.9046 57.204 82.5714L57.4305 81.6339C57.4305 81.6339 59.4225 81.0122 60.1256 81.6339C60.3814 81.86 60.5611 82.7507 60.6451 83.8266C60.7896 85.6958 60.647 88.1263 60.1256 88.6195Z" fill="#FDC2CC"/>
<path d="M52.6281 49.967L47.1853 54.1575C47.1853 54.1575 39.0981 53.6917 41.1194 49.8111C41.9995 48.1043 42.5306 46.2399 42.6817 44.3263C42.7475 43.6203 42.7475 42.9098 42.6817 42.2038C42.6817 42.2038 50.1479 35.3819 49.2144 43.1354C49.1408 43.7306 49.0978 44.3291 49.0855 44.9286C48.982 50.7486 52.6281 49.967 52.6281 49.967Z" fill="#FDC2CC"/>
<path opacity="0.1" d="M49.2066 43.1374C49.133 43.7325 49.09 44.331 49.0777 44.9305C48.2399 45.4843 47.2567 45.7786 46.2518 45.7764C44.8593 45.7764 43.834 44.4238 42.9083 43.5252C43.0118 42.2369 42.6759 42.2057 42.6759 42.2057C42.6759 42.2057 50.1401 35.3741 49.2066 43.1374Z" fill="black"/>
<path d="M46.2518 45.4646C49.0863 45.4646 51.3841 43.1713 51.3841 40.3423C51.3841 37.5134 49.0863 35.2201 46.2518 35.2201C43.4172 35.2201 41.1194 37.5134 41.1194 40.3423C41.1194 43.1713 43.4172 45.4646 46.2518 45.4646Z" fill="#FDC2CC"/>
<path opacity="0.1" d="M42.5979 45.2326C42.5979 45.2326 41.7425 45.3106 40.0317 47.6378C38.3209 49.965 34.5771 50.2769 34.5771 50.2769C34.5771 50.2769 33.1768 49.6551 31.6223 56.6407C30.0677 63.6262 29.601 68.2826 30.3782 69.0584C31.1555 69.8341 34.2666 70.9217 35.8211 70.9217C35.8211 70.9217 36.2879 80.7003 35.5106 82.4077C34.7333 84.1151 35.6668 85.2027 35.6668 85.2027L42.5022 84.7369C42.5022 84.7369 44.836 81.7879 45.3027 76.6657C45.7695 71.5434 47.324 56.9506 46.5467 55.2432C45.7695 53.5358 42.3479 49.1893 42.5022 48.7234C42.6565 48.2576 42.5979 45.2326 42.5979 45.2326Z" fill="black"/>
<path d="M42.5842 45.1858C42.5842 45.1858 41.4339 45.1547 39.7231 47.4838C38.0123 49.813 34.2802 50.1229 34.2802 50.1229C34.2802 50.1229 32.8799 49.5011 31.3254 56.4867C29.7708 63.4722 29.3041 68.1286 30.0853 68.8985C30.8664 69.6684 33.9736 70.7619 35.5281 70.7619C35.5281 70.7619 35.9949 80.5405 35.2176 82.2479C34.4403 83.9553 35.3739 85.0429 35.3739 85.0429L42.2092 84.577C42.2092 84.577 44.543 81.6281 45.0097 76.5058C45.4765 71.3836 47.031 56.7907 46.2538 55.0833C45.4765 53.3759 42.0549 49.0295 42.2092 48.5636C42.3635 48.0978 42.5842 45.1858 42.5842 45.1858Z" fill="#D39999"/>
<path d="M38.4829 65.1797C38.4829 65.1797 46.2654 56.2723 45.1718 62.3847C44.3906 66.7312 41.4397 69.0603 40.0394 69.5262C38.6391 69.992 38.4829 65.1797 38.4829 65.1797Z" fill="#FDC2CC"/>
<path opacity="0.1" d="M60.6451 83.8266C59.901 83.2595 58.4968 82.3765 57.204 82.5714L57.4305 81.6339C57.4305 81.6339 59.4225 81.0122 60.1256 81.6339C60.3834 81.86 60.5611 82.7507 60.6451 83.8266Z" fill="black"/>
<path opacity="0.1" d="M49.1285 46.1643C49.1285 46.1643 53.0949 48.7254 53.5617 49.813C54.0284 50.9006 55.7392 51.6763 55.7392 51.6763C55.7392 51.6763 59.0046 53.3837 59.0046 59.4376L60.7153 67.9747L52.9348 78.8389C52.9348 78.8389 52.0013 67.9727 51.5345 65.3336C51.0677 62.6946 50.4467 57.7322 50.4467 57.7322C50.4467 57.7322 48.1129 54.7832 48.4254 54.0075C48.7379 53.2317 49.1285 46.1643 49.1285 46.1643Z" fill="black"/>
<path d="M49.1149 46.1175C49.1149 46.1175 53.2512 48.4155 53.716 49.5012C54.1808 50.5868 55.8955 51.3567 55.8955 51.3567C55.8955 51.3567 59.1609 53.0641 59.1609 59.118L60.8717 67.655L61.1822 83.9533C61.1822 83.9533 58.3816 81.3143 56.3603 82.5558C54.339 83.7974 53.095 78.5193 53.095 78.5193C53.095 78.5193 52.1615 67.6531 51.6947 65.014C51.228 62.3749 50.6069 57.4125 50.6069 57.4125C50.6069 57.4125 48.2731 54.4752 48.5856 53.6956C48.8981 52.916 49.1149 46.1175 49.1149 46.1175Z" fill="#D39999"/>
<path opacity="0.1" d="M50.7573 34.113C50.4939 33.7787 50.1895 33.4788 49.8511 33.2203C49.316 32.776 48.7243 32.3121 48.0603 32.3511C47.6846 32.401 47.3238 32.5298 47.0018 32.7292C45.3483 33.5985 43.6993 34.4769 42.0549 35.3644C41.4476 35.6918 40.8207 36.0387 40.3969 36.6274C39.9731 37.216 39.8012 37.9722 39.6821 38.7129C39.5824 39.2146 39.5587 39.7284 39.6118 40.2371C39.6602 40.7358 39.9028 41.1956 40.2875 41.5176C40.7308 41.8392 41.3382 41.8412 41.7093 42.2622C41.9241 42.5058 42.0178 42.8469 42.1702 43.1432C42.3225 43.4394 42.5861 43.7279 42.8869 43.6753C43.1876 43.6227 43.3693 43.305 43.4122 42.9834C43.4314 42.6574 43.4124 42.3304 43.3556 42.0088C43.297 41.4241 43.3712 40.8043 43.711 40.3696C43.9454 40.0734 44.2813 39.894 44.5078 39.59C45.0508 38.8571 44.8027 37.6409 45.3984 36.9529C45.5713 36.773 45.789 36.6422 46.0292 36.5737C46.2693 36.5052 46.5234 36.5015 46.7654 36.563C47.2478 36.6644 47.6892 36.9256 48.1325 37.1478C48.7314 37.4493 49.3588 37.6909 50.0054 37.8689C50.5483 38.0171 51.1772 38.3718 51.3627 37.6506C51.6459 36.5923 51.3725 34.9726 50.7573 34.113Z" fill="black"/>
<path d="M50.601 33.9571C50.3377 33.6228 50.0332 33.3229 49.6948 33.0644C49.1597 32.62 48.568 32.1562 47.904 32.1951C47.5283 32.2451 47.1675 32.3739 46.8455 32.5733C45.1933 33.4426 43.8203 32.62 41.8986 35.2084C41.4885 35.762 40.6644 35.8828 40.2406 36.4715C39.8168 37.0601 39.6449 37.8163 39.5258 38.557C39.4261 39.0587 39.4024 39.5725 39.4555 40.0812C39.5039 40.5799 39.7465 41.0397 40.1312 41.3617C40.5745 41.6833 41.1819 41.6853 41.553 42.1063C41.7678 42.3499 41.8615 42.691 42.0138 42.9873C42.1662 43.2835 42.4298 43.572 42.7306 43.5194C43.0313 43.4667 43.213 43.149 43.2559 42.8274C43.2751 42.5015 43.2561 42.1744 43.1993 41.8529C43.1407 41.2682 43.2149 40.6484 43.5547 40.2137C43.7891 39.9174 44.125 39.7381 44.3515 39.4341C44.8945 38.7012 44.6464 37.485 45.2421 36.7969C45.415 36.6171 45.6327 36.4863 45.8729 36.4178C46.113 36.3493 46.3671 36.3456 46.6092 36.4071C47.0915 36.5085 47.5329 36.7697 47.9762 36.9919C48.5751 37.2934 49.2025 37.535 49.8491 37.713C50.392 37.8612 51.0209 38.2159 51.2064 37.4947C51.4915 36.4364 51.2259 34.8167 50.601 33.9571Z" fill="#865A61"/>
<path d="M36.6081 56.9525C36.6081 56.9525 36.4519 62.6965 35.6746 63.4722C34.8973 64.248 36.1414 65.1796 36.1414 65.1796L39.2524 64.4C39.2524 64.4 38.4712 69.5222 41.7405 68.9024C41.7405 68.9024 39.5629 70.9197 37.3854 71.2316C35.2079 71.5434 35.3582 70.7677 35.3582 70.7677L32.0929 66.887L36.6081 56.9525Z" fill="#D39999"/>
<path opacity="0.1" d="M36.5827 57.6503C36.5827 57.6503 34.5087 62.9284 36.0652 65.1017L39.4868 64.322C39.4868 64.322 36.3757 65.2537 36.8425 63.3904C37.3092 61.527 36.5827 57.6503 36.5827 57.6503Z" fill="black"/>
<path opacity="0.1" d="M35.4422 70.6898C35.4422 70.6898 39.9535 70.9997 41.1976 70.068C39.5604 71.3195 37.6257 72.1254 35.5828 72.4069L35.4422 70.6898Z" fill="black"/>
<path opacity="0.1" d="M54.8877 60.7552C54.8877 60.7552 57.2215 67.8967 57.0652 68.9823C56.909 70.068 56.5985 82.0218 56.5985 82.0218L56.1317 81.8659L56.288 68.8264L54.8877 60.7552Z" fill="black"/>
<path d="M153.145 80.9498C153.145 80.9498 156.562 87.6449 153.777 91.3073C150.993 94.9696 154.031 104.951 154.031 104.951" stroke="#DD2052" stroke-miterlimit="10"/>
<path d="M154.156 78.8662C154.156 80.1565 153.207 81.2051 153.207 81.2051C153.207 81.2051 152.258 80.1584 152.258 78.8662C152.258 77.5739 153.207 76.5273 153.207 76.5273C153.207 76.5273 154.156 77.5759 154.156 78.8662Z" fill="#DD2052"/>
<path d="M154.916 80.9498C154.916 80.9498 151.498 87.6449 154.283 91.3073C157.068 94.9696 154.029 104.951 154.029 104.951" stroke="#DD2052" stroke-miterlimit="10"/>
<path d="M153.902 78.8662C153.902 80.1565 154.852 81.2051 154.852 81.2051C154.852 81.2051 155.801 80.1584 155.801 78.8662C155.801 77.5739 154.852 76.5273 154.852 76.5273C154.852 76.5273 153.902 77.5759 153.902 78.8662Z" fill="#DD2052"/>
<path opacity="0.1" d="M153.902 78.8662C153.902 80.1565 154.852 81.2051 154.852 81.2051C154.852 81.2051 155.801 80.1584 155.801 78.8662C155.801 77.5739 154.852 76.5273 154.852 76.5273C154.852 76.5273 153.902 77.5759 153.902 78.8662Z" fill="black"/>
<path d="M156.309 80.9498C156.309 80.9498 159.726 87.6449 156.941 91.3073C154.156 94.9696 157.195 104.951 157.195 104.951" stroke="#DD2052" stroke-miterlimit="10"/>
<path d="M157.32 78.8662C157.32 80.1565 156.371 81.2051 156.371 81.2051C156.371 81.2051 155.422 80.1584 155.422 78.8662C155.422 77.5739 156.371 76.5273 156.371 76.5273C156.371 76.5273 157.32 77.5759 157.32 78.8662Z" fill="#DD2052"/>
<path d="M156.789 84.2301C155.893 85.1598 154.481 85.2573 154.481 85.2573C154.481 85.2573 154.524 83.8461 155.42 82.9183C156.316 81.9906 157.728 81.8912 157.728 81.8912C157.728 81.8912 157.685 83.3004 156.789 84.2301Z" fill="#DD2052"/>
<path d="M156.877 88.8495C155.98 89.7792 154.568 89.8766 154.568 89.8766C154.568 89.8766 154.611 88.4655 155.508 87.5377C156.404 86.61 157.808 86.5086 157.808 86.5086C157.808 86.5086 157.773 87.9178 156.877 88.8495Z" fill="#DD2052"/>
<path d="M152.016 91.3891C152.864 92.3637 152.834 93.7748 152.834 93.7748C152.834 93.7748 151.43 93.6053 150.582 92.6307C149.735 91.6562 149.764 90.245 149.764 90.245C149.764 90.245 151.168 90.4146 152.016 91.3891Z" fill="#DD2052"/>
<path d="M152.803 81.5404C153.881 82.2537 154.231 83.622 154.231 83.622C154.231 83.622 152.83 83.8325 151.754 83.1269C150.678 82.4214 150.327 81.0453 150.327 81.0453C150.327 81.0453 151.725 80.827 152.803 81.5404Z" fill="#DD2052"/>
<path opacity="0.1" d="M152.803 81.5404C153.881 82.2537 154.231 83.622 154.231 83.622C154.231 83.622 152.83 83.8325 151.754 83.1269C150.678 82.4214 150.327 81.0453 150.327 81.0453C150.327 81.0453 151.725 80.827 152.803 81.5404Z" fill="black"/>
<path d="M158.08 80.9498C158.08 80.9498 154.662 87.6449 157.447 91.3073C160.232 94.9696 157.193 104.951 157.193 104.951" stroke="#DD2052" stroke-miterlimit="10"/>
<path d="M157.068 78.8662C157.068 80.1565 158.017 81.2051 158.017 81.2051C158.017 81.2051 158.967 80.1584 158.967 78.8662C158.967 77.5739 158.017 76.5273 158.017 76.5273C158.017 76.5273 157.068 77.5759 157.068 78.8662Z" fill="#DD2052"/>
<path opacity="0.1" d="M157.068 78.8662C157.068 80.1565 158.017 81.2051 158.017 81.2051C158.017 81.2051 158.967 80.1584 158.967 78.8662C158.967 77.5739 158.017 76.5273 158.017 76.5273C158.017 76.5273 157.068 77.5759 157.068 78.8662Z" fill="black"/>
<path d="M157.342 84.3295C156.434 85.2495 156.365 86.6684 156.365 86.6684C156.365 86.6684 157.777 86.5885 158.685 85.6685C159.593 84.7486 159.662 83.3296 159.662 83.3296C159.662 83.3296 158.248 83.4095 157.342 84.3295Z" fill="#DD2052"/>
<path opacity="0.1" d="M157.342 84.3295C156.434 85.2495 156.365 86.6684 156.365 86.6684C156.365 86.6684 157.777 86.5885 158.685 85.6685C159.593 84.7486 159.662 83.3296 159.662 83.3296C159.662 83.3296 158.248 83.4095 157.342 84.3295Z" fill="black"/>
<path d="M159.121 90.7284C158.213 91.6483 158.144 93.0673 158.144 93.0673C158.144 93.0673 159.556 92.9873 160.464 92.0674C161.373 91.1474 161.441 89.7285 161.441 89.7285C161.441 89.7285 160.029 89.8045 159.121 90.7284Z" fill="#DD2052"/>
<path d="M156.502 89.3192C156.502 89.3192 158.558 86.0837 161.447 86.0057" stroke="#DD2052" stroke-miterlimit="10"/>
<path d="M154.9 87.3643C154.9 87.3643 152.844 84.1287 149.956 84.0508" stroke="#DD2052" stroke-miterlimit="10"/>
<path d="M154.633 91.9836C154.633 91.9836 156.689 88.7481 159.578 88.6702" stroke="#DD2052" stroke-miterlimit="10"/>
<path d="M161.351 86.5203C161.645 86.5203 161.884 86.2821 161.884 85.9882C161.884 85.6943 161.645 85.4561 161.351 85.4561C161.057 85.4561 160.818 85.6943 160.818 85.9882C160.818 86.2821 161.057 86.5203 161.351 86.5203Z" fill="#DD2052"/>
<path d="M150.004 84.6102C150.299 84.6102 150.538 84.372 150.538 84.0781C150.538 83.7842 150.299 83.546 150.004 83.546C149.71 83.546 149.471 83.7842 149.471 84.0781C149.471 84.372 149.71 84.6102 150.004 84.6102Z" fill="#DD2052"/>
<path d="M156.146 93.0498C156.146 93.0498 154.09 89.8143 151.202 89.7363" stroke="#DD2052" stroke-miterlimit="10"/>
<path d="M151.25 90.2957C151.545 90.2957 151.784 90.0575 151.784 89.7636C151.784 89.4697 151.545 89.2315 151.25 89.2315C150.956 89.2315 150.717 89.4697 150.717 89.7636C150.717 90.0575 150.956 90.2957 151.25 90.2957Z" fill="#DD2052"/>
<path d="M159.617 89.2295C159.911 89.2295 160.15 88.9913 160.15 88.6974C160.15 88.4036 159.911 88.1653 159.617 88.1653C159.322 88.1653 159.084 88.4036 159.084 88.6974C159.084 88.9913 159.322 89.2295 159.617 89.2295Z" fill="#DD2052"/>
<path d="M167.516 101.059C167.516 101.059 162.56 100.068 161.238 98.7489C159.916 97.4294 153.967 95.1275 153.307 96.7706C152.647 98.4136 144.384 104.033 149.997 105.021C155.609 106.009 163.216 106.341 164.868 105.68C166.52 105.019 167.516 101.059 167.516 101.059Z" fill="#A8A8A8"/>
<path opacity="0.2" d="M149.997 104.409C155.615 105.399 163.216 105.729 164.868 105.068C166.126 104.565 167.001 102.144 167.347 101.029L167.513 101.064C167.513 101.064 166.52 105.023 164.868 105.682C163.216 106.341 155.615 106.011 149.997 105.023C148.376 104.737 147.911 104.066 148.087 103.218C148.229 103.77 148.794 104.197 149.997 104.409Z" fill="black"/>
<path d="M22.1309 117.56C22.1309 117.56 23.7675 119.704 21.3751 122.92C18.9828 126.136 17.0103 128.866 17.809 130.88C17.809 130.88 21.4181 124.89 24.3553 124.806C27.2926 124.723 25.3611 121.162 22.1309 117.56Z" fill="#DD2052"/>
<path opacity="0.1" d="M22.1309 117.56C22.2735 117.766 22.386 117.992 22.4648 118.23C25.3318 121.59 26.857 124.726 24.1034 124.806C21.5372 124.88 18.4593 129.459 17.7211 130.617C17.7455 130.706 17.7748 130.794 17.809 130.88C17.809 130.88 21.4181 124.89 24.3553 124.806C27.2926 124.723 25.3611 121.162 22.1309 117.56Z" fill="black"/>
<path d="M25.1735 120.281C25.1735 121.033 25.0896 121.645 24.9783 121.645C24.8669 121.645 24.783 121.035 24.783 120.281C24.783 119.526 24.8884 119.891 24.9919 119.891C25.0954 119.891 25.1735 119.53 25.1735 120.281Z" fill="#FFD037"/>
<path d="M26.2165 121.179C25.5544 121.54 24.9783 121.764 24.9295 121.664C24.8807 121.565 25.3747 121.206 26.0368 120.848C26.6989 120.489 26.4372 120.75 26.4879 120.848C26.5387 120.945 26.8785 120.819 26.2165 121.179Z" fill="#FFD037"/>
<path d="M13.4851 117.56C13.4851 117.56 11.8485 119.704 14.2409 122.92C16.6333 126.136 18.6058 128.866 17.807 130.878C17.807 130.878 14.198 124.888 11.2607 124.804C8.32347 124.721 10.2549 121.162 13.4851 117.56Z" fill="#DD2052"/>
<path opacity="0.1" d="M13.4851 117.56C13.3425 117.766 13.2301 117.992 13.1512 118.23C10.2842 121.59 8.75897 124.726 11.5126 124.806C14.0788 124.88 17.1567 129.459 17.8949 130.617C17.8705 130.706 17.8412 130.794 17.807 130.88C17.807 130.88 14.198 124.89 11.2607 124.806C8.32347 124.723 10.2549 121.162 13.4851 117.56Z" fill="black"/>
<path d="M10.4424 120.281C10.4424 121.033 10.5264 121.645 10.6377 121.645C10.7491 121.645 10.833 121.035 10.833 120.281C10.833 119.526 10.7276 119.891 10.6241 119.891C10.5206 119.891 10.4424 119.53 10.4424 120.281Z" fill="#FFD037"/>
<path d="M9.39955 121.179C10.0616 121.54 10.6377 121.764 10.6865 121.664C10.7354 121.565 10.2413 121.206 9.57922 120.848C8.91717 120.489 9.17887 120.75 9.12809 120.848C9.07731 120.945 8.7375 120.819 9.39955 121.179Z" fill="#FFD037"/>
<path d="M10.9639 130.597C10.9639 130.597 15.5396 130.457 16.9184 129.476C18.2972 128.496 23.9491 127.332 24.2986 128.892C24.6482 130.451 31.175 136.709 26.0094 136.75C20.8439 136.791 14.0066 135.947 12.6297 135.111C11.2529 134.275 10.9639 130.597 10.9639 130.597Z" fill="#A8A8A8"/>
<path opacity="0.2" d="M26.1032 136.21C20.9376 136.251 14.1003 135.407 12.7235 134.571C11.6747 133.934 11.2568 131.648 11.1182 130.593H10.9658C10.9658 130.593 11.2549 134.277 12.6317 135.113C14.0085 135.949 20.8458 136.795 26.0114 136.752C27.5034 136.741 28.0171 136.21 27.9897 135.427C27.7808 135.906 27.2124 136.201 26.1032 136.21Z" fill="black"/>
</g>
<defs>
<linearGradient id="paint0_linear" x1="98.9542" y1="116.351" x2="98.9542" y2="47.2402" gradientUnits="userSpaceOnUse">
<stop stop-color="#808080" stop-opacity="0.25"/>
<stop offset="0.54" stop-color="#808080" stop-opacity="0.12"/>
<stop offset="1" stop-color="#808080" stop-opacity="0.1"/>
</linearGradient>
<linearGradient id="paint1_linear" x1="13486.1" y1="34001.6" x2="17028.7" y2="20818.6" gradientUnits="userSpaceOnUse">
<stop stop-color="#808080" stop-opacity="0.25"/>
<stop offset="0.54" stop-color="#808080" stop-opacity="0.12"/>
<stop offset="1" stop-color="#808080" stop-opacity="0.1"/>
</linearGradient>
<linearGradient id="paint2_linear" x1="10510.7" y1="84519" x2="10510.7" y2="23603.7" gradientUnits="userSpaceOnUse">
<stop stop-color="#808080" stop-opacity="0.25"/>
<stop offset="0.54" stop-color="#808080" stop-opacity="0.12"/>
<stop offset="1" stop-color="#808080" stop-opacity="0.1"/>
</linearGradient>
<clipPath id="clip0">
<rect width="200" height="153" fill="white"/>
</clipPath>
</defs>
</svg>
