<svg width="423" height="83" viewBox="0 0 423 83" fill="none" xmlns="http://www.w3.org/2000/svg">
<path d="M4.928 66V21.328H35.328V29.968H14.656V39.12H32.384V47.696H14.656V57.36H35.328V66H4.928ZM56.923 43.088L52.315 33.808H52.123V66H44.123V21.328H53.403L66.843 44.24L71.451 53.52H71.643V21.328H79.643V66H70.363L56.923 43.088ZM90.123 21.328H106.379C109.28 21.328 111.904 21.7973 114.251 22.736C116.64 23.6747 118.667 25.0827 120.331 26.96C122.038 28.7947 123.339 31.12 124.235 33.936C125.174 36.7093 125.643 39.952 125.643 43.664C125.643 47.376 125.174 50.64 124.235 53.456C123.339 56.2293 122.038 58.5547 120.331 60.432C118.667 62.2667 116.64 63.6533 114.251 64.592C111.904 65.5307 109.28 66 106.379 66H90.123V21.328ZM106.379 58.512C109.536 58.512 112.032 57.5947 113.867 55.76C115.744 53.8827 116.683 51.024 116.683 47.184V40.144C116.683 36.304 115.744 33.4667 113.867 31.632C112.032 29.7547 109.536 28.816 106.379 28.816H98.571V58.512H106.379ZM134.248 66V21.328H163.688V28.816H142.696V39.632H161.256V47.12H142.696V58.512H163.688V66H134.248ZM181.071 66H172.623V21.328H192.783C194.831 21.328 196.666 21.648 198.287 22.288C199.908 22.928 201.274 23.8667 202.383 25.104C203.535 26.2987 204.41 27.7493 205.007 29.456C205.647 31.1627 205.967 33.0613 205.967 35.152C205.967 38.224 205.263 40.8693 203.855 43.088C202.49 45.3067 200.42 46.8853 197.647 47.824L206.799 66H197.391L189.071 48.784H181.071V66ZM191.951 41.68C193.572 41.68 194.852 41.2533 195.791 40.4C196.73 39.504 197.199 38.2453 197.199 36.624V33.68C197.199 32.0587 196.73 30.8213 195.791 29.968C194.852 29.1147 193.572 28.688 191.951 28.688H181.071V41.68H191.951ZM229.267 66.768C225.342 66.768 222.014 66.1067 219.283 64.784C216.552 63.4187 214.227 61.6693 212.307 59.536L218.707 53.072C221.736 56.4853 225.47 58.192 229.907 58.192C232.296 58.192 234.067 57.7013 235.219 56.72C236.371 55.7387 236.947 54.4373 236.947 52.816C236.947 51.5787 236.606 50.5547 235.923 49.744C235.24 48.8907 233.854 48.3147 231.763 48.016L227.347 47.44C222.611 46.8427 219.134 45.4133 216.915 43.152C214.739 40.8907 213.651 37.8827 213.651 34.128C213.651 32.1227 214.035 30.288 214.803 28.624C215.571 26.96 216.659 25.5307 218.067 24.336C219.518 23.1413 221.267 22.224 223.315 21.584C225.406 20.9013 227.774 20.56 230.419 20.56C233.79 20.56 236.755 21.0933 239.315 22.16C241.875 23.2267 244.072 24.784 245.907 26.832L239.443 33.36C238.376 32.1227 237.075 31.12 235.539 30.352C234.046 29.5413 232.147 29.136 229.843 29.136C227.667 29.136 226.046 29.52 224.979 30.288C223.912 31.056 223.379 32.1227 223.379 33.488C223.379 35.024 223.784 36.1333 224.595 36.816C225.448 37.4987 226.814 37.9893 228.691 38.288L233.107 38.992C237.715 39.7173 241.128 41.1467 243.347 43.28C245.566 45.3707 246.675 48.3573 246.675 52.24C246.675 54.3733 246.291 56.336 245.523 58.128C244.755 59.92 243.624 61.456 242.131 62.736C240.68 64.016 238.867 65.0187 236.691 65.744C234.515 66.4267 232.04 66.768 229.267 66.768ZM272.597 28.816V66H264.149V28.816H251.477V21.328H285.269V28.816H272.597ZM346.186 21.328H362.442C365.343 21.328 367.967 21.7973 370.314 22.736C372.703 23.6747 374.73 25.0827 376.394 26.96C378.1 28.7947 379.402 31.12 380.298 33.936C381.236 36.7093 381.706 39.952 381.706 43.664C381.706 47.376 381.236 50.64 380.298 53.456C379.402 56.2293 378.1 58.5547 376.394 60.432C374.73 62.2667 372.703 63.6533 370.314 64.592C367.967 65.5307 365.343 66 362.442 66H346.186V21.328ZM362.442 58.512C365.599 58.512 368.095 57.5947 369.93 55.76C371.807 53.8827 372.746 51.024 372.746 47.184V40.144C372.746 36.304 371.807 33.4667 369.93 31.632C368.095 29.7547 365.599 28.816 362.442 28.816H354.634V58.512H362.442ZM398.374 66V48.464L383.078 21.328H392.55L402.854 40.208H402.982L413.03 21.328H422.246L406.886 48.4V66H398.374Z" fill="black"/>
<path d="M338.688 30C339.312 30 339.844 30.2188 340.281 30.6562C340.719 31.0938 340.938 31.625 340.938 32.25V37.5C340.938 41 339 44.1562 335.125 46.9688C332.125 49.0938 328.688 50.375 324.812 50.8125C322.875 54.0625 320.75 56.375 318.438 57.75V64.5H322.938C324.625 64.5 326.031 64.9688 327.156 65.9062C328.344 66.8438 328.938 68.125 328.938 69.75V70.875C328.938 71.625 328.562 72 327.812 72H300.062C299.312 72 298.938 71.625 298.938 70.875V69.75C298.938 68.125 299.5 66.8438 300.625 65.9062C301.812 64.9688 303.25 64.5 304.938 64.5H309.438V57.75C309.188 57.625 308.844 57.4062 308.406 57.0938C307.969 56.7812 307.188 56.0312 306.062 54.8438C304.938 53.6562 303.938 52.3125 303.062 50.8125C299.188 50.375 295.75 49.0938 292.75 46.9688C288.875 44.1562 286.938 41 286.938 37.5V32.25C286.938 31.625 287.156 31.0938 287.594 30.6562C288.031 30.2188 288.562 30 289.188 30H298.938V26.25C298.938 25.625 299.156 25.0938 299.594 24.6562C300.031 24.2188 300.562 24 301.188 24H326.688C327.312 24 327.844 24.2188 328.281 24.6562C328.719 25.0938 328.938 25.625 328.938 26.25V30H338.688ZM296.219 42.0938C297.406 42.9062 298.719 43.5625 300.156 44.0625C299.469 41.5 299.062 38.8125 298.938 36H292.938V37.5C292.938 38.9375 294.031 40.4688 296.219 42.0938ZM334.938 37.5V36H328.938C328.812 38.8125 328.406 41.5 327.719 44.0625C329.156 43.5625 330.469 42.9062 331.656 42.0938C333.844 40.4688 334.938 38.9375 334.938 37.5Z" fill="#DD2052"/>
</svg>
